<svg width="258" height="82" viewBox="0 0 258 82" fill="none" xmlns="http://www.w3.org/2000/svg">
<path d="M43.7029 7.38015C24.0346 8.14718 8.14664 24.042 7.38018 43.7029C7.35135 44.4422 7.94536 45.0512 8.68529 45.0483L12.6191 45.0328C13.325 45.0305 13.9023 44.4682 13.9328 43.7628C14.6387 27.6379 27.635 14.6381 43.7634 13.9322C44.4688 13.9016 45.0305 13.3238 45.0334 12.6185L45.0489 8.68468C45.0512 7.94533 44.4422 7.35131 43.7029 7.38015ZM36.9098 36.9097C34.8711 38.9484 34.8711 42.253 36.9098 44.2917C38.9484 46.3304 42.253 46.3304 44.2917 44.2917C46.3304 42.253 46.3304 38.9484 44.2917 36.9097C42.253 34.871 38.9484 34.871 36.9098 36.9097ZM43.7773 20.4007C31.2516 21.1694 21.1683 31.2654 20.4007 43.7772C20.3546 44.527 20.9526 45.1504 21.7029 45.1452L25.6494 45.1193C26.3368 45.1147 26.917 44.5806 26.9672 43.8937C27.6235 34.867 34.8872 27.6217 43.8932 26.9677C44.5801 26.9175 45.1147 26.3379 45.1187 25.6499L45.1447 21.7035C45.1504 20.9526 44.5259 20.3545 43.7773 20.4007V20.4007Z" fill="url(#paint0_linear_369_70)"/>
<path d="M37.3491 73.7947C57.0174 73.0276 72.9054 57.1328 73.6718 37.472C73.7007 36.7326 73.1066 36.1236 72.3667 36.1265L68.4329 36.142C67.727 36.1444 67.1497 36.7067 67.1192 37.412C66.4133 53.5369 53.417 66.5367 37.2886 67.2426C36.5832 67.2732 36.0215 67.851 36.0186 68.5563L36.0031 72.4901C36.0008 73.2295 36.6098 73.8235 37.3491 73.7947ZM44.1423 44.2651C46.1809 42.2264 46.1809 38.9218 44.1423 36.8831C42.1036 34.8444 38.799 34.8444 36.7603 36.8831C34.7216 38.9218 34.7216 42.2264 36.7603 44.2651C38.799 46.3038 42.1036 46.3038 44.1423 44.2651ZM37.2747 60.7741C49.8004 60.0054 59.8837 49.9094 60.6513 37.3976C60.6974 36.6478 60.0994 36.0244 59.3491 36.0296L55.4026 36.0555C54.7152 36.0602 54.135 36.5942 54.0848 37.2811C53.4285 46.3078 46.1648 53.5531 37.1588 54.2071C36.4719 54.2573 35.9373 54.8369 35.9333 55.5249L35.9073 59.4713C35.9016 60.2222 36.5261 60.8203 37.2747 60.7741Z" fill="url(#paint1_linear_369_70)"/>
<path d="M87.092 19.9228V18.9148H87.456C87.4373 18.9148 88.3333 18.9335 90.144 18.9708C91.6933 18.9895 93.3547 18.9895 95.128 18.9708L98.18 18.9148H98.572V19.9228V20.9308H96.696H94.792V28.5188V36.1068H95.996C96.8547 36.1068 97.368 36.0881 97.536 36.0508C98.3013 35.9575 98.992 35.7055 99.608 35.2948C100.747 34.5108 101.465 33.2041 101.764 31.3748C101.913 30.5535 101.988 30.0215 101.988 29.7788C101.988 29.7601 102.324 29.7508 102.996 29.7508H104.004V29.8908C103.967 29.9841 103.827 31.3281 103.584 33.9228C103.304 36.5921 103.155 37.9455 103.136 37.9828V38.1228H95.1H87.092V37.1148V36.1068H88.604H90.116V28.5188V20.9308H88.604H87.092V19.9228ZM117.651 18.6348H119.219C119.984 18.6908 120.693 18.8495 121.347 19.1108C122.075 19.3535 122.775 19.7268 123.447 20.2308C123.615 20.3615 123.699 20.4081 123.699 20.3708C123.717 20.3708 124.063 20.0908 124.735 19.5308C125.481 18.9335 125.845 18.6441 125.827 18.6628C125.976 18.5695 126.247 18.5695 126.639 18.6628C126.732 18.7188 126.788 18.8121 126.807 18.9428C126.825 19.1295 126.835 20.3428 126.835 22.5828C126.835 25.0655 126.807 26.3441 126.751 26.4188L126.639 26.4748C126.564 26.5121 126.265 26.5308 125.743 26.5308C125.22 26.5308 124.921 26.5121 124.847 26.4748C124.716 26.3815 124.641 26.2415 124.623 26.0548C124.473 24.6735 123.979 23.4788 123.139 22.4708C122.765 22.0601 122.411 21.7335 122.075 21.4908C121.477 21.0615 120.852 20.8001 120.199 20.7068C119.377 20.5388 118.369 20.5855 117.175 20.8468C115.98 21.0895 115.019 21.5188 114.291 22.1348C113.861 22.4708 113.544 22.8068 113.339 23.1428C112.555 24.2815 112.163 26.0735 112.163 28.5188C112.163 31.0761 112.601 32.9241 113.479 34.0628C113.572 34.1935 113.684 34.3241 113.815 34.4548C114.057 34.6975 114.216 34.8468 114.291 34.9028C115.019 35.5188 115.98 35.9481 117.175 36.1908C118.22 36.4148 119.144 36.4801 119.947 36.3868C121.645 36.2188 122.961 35.4628 123.895 34.1188C124.455 33.3348 124.763 32.4668 124.819 31.5148C124.819 31.1975 124.884 31.0015 125.015 30.9268C125.089 30.8895 125.36 30.8708 125.827 30.8708C126.293 30.8708 126.564 30.8895 126.639 30.9268C126.769 31.0201 126.835 31.2348 126.835 31.5708C126.779 32.4668 126.573 33.2788 126.219 34.0068C125.341 35.8361 123.839 37.1241 121.711 37.8708C120.927 38.1508 120.096 38.3281 119.219 38.4028C118.621 38.4588 117.865 38.4495 116.951 38.3748C114.599 38.1135 112.639 37.4415 111.071 36.3588C109.577 35.2575 108.513 33.8855 107.879 32.2428C107.599 31.5335 107.384 30.6935 107.235 29.7228C107.16 29.0508 107.16 28.2855 107.235 27.4268C107.235 27.3708 107.235 27.3241 107.235 27.2868C107.421 25.7935 107.888 24.4495 108.635 23.2548C109.773 21.4068 111.5 20.0908 113.815 19.3068C115.009 18.9335 116.288 18.7095 117.651 18.6348ZM129.748 19.9228V18.9148H133.612H137.504L137.616 18.9708C137.672 18.9895 139.324 20.9961 142.572 24.9908C145.876 29.0601 147.5 31.0668 147.444 31.0108L147.528 31.0948V26.0268V20.9308H146.016H144.504V19.9228V18.9148H144.784L146.828 18.9708C148.023 18.9895 149.218 18.9895 150.412 18.9708C151.756 18.9335 152.438 18.9148 152.456 18.9148H152.736V19.9228V20.9308H151.224H149.712V29.3308C149.712 34.9121 149.694 37.7401 149.656 37.8148C149.619 37.9268 149.544 38.0108 149.432 38.0668C149.358 38.1041 149.087 38.1228 148.62 38.1228C148.154 38.1228 147.883 38.1041 147.808 38.0668C147.771 38.0481 145.634 35.4441 141.396 30.2548C137.122 24.9348 135.003 22.3121 135.04 22.3868L134.956 22.3028V29.1908V36.1068H136.468H137.98V37.1148V38.1228H137.7C137.719 38.1228 137.038 38.1041 135.656 38.0668C134.462 38.0481 133.267 38.0481 132.072 38.0668C130.691 38.1041 130.01 38.1228 130.028 38.1228H129.748V37.1148V36.1068H131.26H132.772V28.5188V20.9308H131.26H129.748V19.9228Z" fill="#47A9FF"/>
<path d="M83.936 49.0668C83.936 48.7788 83.924 48.5628 83.9 48.4188C83.876 48.2668 83.828 48.1388 83.756 48.0348C83.684 47.9308 83.568 47.8108 83.408 47.6748L83.516 47.5188H85.604L85.688 47.7108C85.504 47.8148 85.372 47.9068 85.292 47.9868C85.212 48.0668 85.156 48.1668 85.124 48.2868C85.1 48.4068 85.088 48.5948 85.088 48.8508V52.1988C85.088 52.4548 85.124 52.6228 85.196 52.7028C85.268 52.7828 85.428 52.8228 85.676 52.8228H86.132C86.364 52.8228 86.548 52.7468 86.684 52.5948C86.82 52.4348 86.96 52.1348 87.104 51.6948L87.344 51.7788V53.2188L87.224 53.3268C87.12 53.2468 87.004 53.1908 86.876 53.1588C86.748 53.1348 86.556 53.1228 86.3 53.1228H83.348L83.276 52.9068C83.476 52.8508 83.62 52.7988 83.708 52.7508C83.796 52.6948 83.856 52.6228 83.888 52.5348C83.92 52.4468 83.936 52.3108 83.936 52.1268V49.0668ZM90.0797 52.8348C90.3117 52.8348 90.5157 52.7948 90.6917 52.7148C90.8677 52.6268 91.0397 52.4828 91.2077 52.2828L91.3517 52.3908C91.1677 52.6548 90.9317 52.8628 90.6437 53.0148C90.3637 53.1588 90.0557 53.2308 89.7197 53.2308C89.3517 53.2308 89.0197 53.1428 88.7237 52.9668C88.4357 52.7908 88.2077 52.5508 88.0397 52.2468C87.8717 51.9348 87.7877 51.5828 87.7877 51.1908C87.7877 50.5668 87.9757 50.0708 88.3517 49.7028C88.7357 49.3268 89.2437 49.1388 89.8757 49.1388C90.3237 49.1388 90.6877 49.2468 90.9677 49.4628C91.2557 49.6708 91.3997 49.9428 91.3997 50.2788C91.3997 50.6628 91.2357 50.9708 90.9077 51.2028C90.5877 51.4268 90.1477 51.5388 89.5877 51.5388C89.3637 51.5388 89.1597 51.5228 88.9757 51.4908C89.0157 51.9068 89.1357 52.2348 89.3357 52.4748C89.5357 52.7148 89.7837 52.8348 90.0797 52.8348ZM89.7437 49.4268C89.4957 49.4268 89.2997 49.5788 89.1557 49.8828C89.0197 50.1788 88.9517 50.5948 88.9517 51.1308V51.3228C89.0397 51.3228 89.1477 51.3148 89.2757 51.2988C89.6117 51.2588 89.8677 51.1508 90.0437 50.9748C90.2277 50.7908 90.3197 50.5508 90.3197 50.2548C90.3197 50.0148 90.2637 49.8188 90.1517 49.6668C90.0477 49.5068 89.9117 49.4268 89.7437 49.4268ZM93.3044 50.4708C93.1364 50.5668 92.9364 50.6148 92.7044 50.6148C92.5364 50.6148 92.4044 50.5668 92.3084 50.4708C92.2124 50.3668 92.1644 50.2228 92.1644 50.0388C92.1644 49.7668 92.2964 49.5508 92.5604 49.3908C92.8324 49.2228 93.1844 49.1388 93.6164 49.1388C94.1284 49.1388 94.5284 49.2508 94.8164 49.4748C95.1124 49.6988 95.2604 50.0028 95.2604 50.3868V52.4628C95.2604 52.6868 95.3404 52.7988 95.5004 52.7988C95.6524 52.7988 95.8004 52.7388 95.9444 52.6188L96.0404 52.7388C95.7444 53.0668 95.3924 53.2308 94.9844 53.2308C94.7444 53.2308 94.5604 53.1708 94.4324 53.0508C94.3124 52.9308 94.2404 52.7428 94.2164 52.4868H94.1684C94.0404 52.7188 93.8684 52.9028 93.6524 53.0388C93.4444 53.1668 93.2044 53.2308 92.9324 53.2308C92.6284 53.2308 92.3844 53.1388 92.2004 52.9548C92.0164 52.7628 91.9244 52.5148 91.9244 52.2108C91.9244 51.8668 92.0884 51.5948 92.4164 51.3948C92.7444 51.1948 93.1884 51.0948 93.7484 51.0948C93.8524 51.0948 94.0004 51.1028 94.1924 51.1188V50.5188C94.1924 50.1268 94.1444 49.8468 94.0484 49.6788C93.9524 49.5028 93.7964 49.4148 93.5804 49.4148C93.4284 49.4148 93.3084 49.4628 93.2204 49.5588C93.1324 49.6548 93.0884 49.7788 93.0884 49.9308C93.0884 50.1708 93.1604 50.3508 93.3044 50.4708ZM93.4844 52.6308C93.9564 52.6308 94.1924 52.2028 94.1924 51.3468C93.7924 51.3468 93.4924 51.4148 93.2924 51.5508C93.0924 51.6788 92.9924 51.8628 92.9924 52.1028C92.9924 52.2628 93.0364 52.3908 93.1244 52.4868C93.2124 52.5828 93.3324 52.6308 93.4844 52.6308ZM98.9233 49.1388C99.1793 49.1388 99.3873 49.2148 99.5473 49.3668C99.7073 49.5108 99.7873 49.6988 99.7873 49.9308C99.7873 50.1468 99.7233 50.3228 99.5953 50.4588C99.4673 50.5868 99.2993 50.6508 99.0913 50.6508C98.9313 50.6508 98.7833 50.6188 98.6473 50.5548C98.7913 50.4348 98.8633 50.2548 98.8633 50.0148C98.8633 49.9028 98.8393 49.8148 98.7913 49.7508C98.7433 49.6868 98.6793 49.6548 98.5993 49.6548C98.4073 49.6548 98.2473 49.8508 98.1193 50.2428C97.9913 50.6268 97.9273 51.1068 97.9273 51.6828C97.9273 51.9788 97.9433 52.2148 97.9753 52.3908C98.0153 52.5668 98.0793 52.7308 98.1673 52.8828L98.2633 53.0028L98.1673 53.1228H96.4272L96.3553 52.9188L96.5233 52.8828C96.6513 52.8508 96.7353 52.8028 96.7753 52.7388C96.8153 52.6668 96.8353 52.5308 96.8353 52.3308V49.9908C96.8353 49.8388 96.7833 49.7628 96.6793 49.7628H96.3073L96.2593 49.6308C96.4113 49.4948 96.5993 49.3828 96.8232 49.2948C97.0553 49.2068 97.2833 49.1628 97.5073 49.1628C97.6113 49.1628 97.6953 49.1868 97.7593 49.2348C97.8233 49.2828 97.8553 49.3468 97.8553 49.4268V50.3028H97.8913C98.0593 49.5268 98.4033 49.1388 98.9233 49.1388ZM104.292 52.4388C104.292 52.6788 104.368 52.7988 104.52 52.7988C104.672 52.7988 104.82 52.7388 104.964 52.6188L105.06 52.7388C104.764 53.0668 104.416 53.2308 104.016 53.2308C103.728 53.2308 103.52 53.1588 103.392 53.0148C103.272 52.8628 103.212 52.6188 103.212 52.2828V50.4468C103.212 49.9828 103.064 49.7508 102.768 49.7508C102.48 49.7508 102.244 49.9468 102.06 50.3388C101.884 50.7308 101.796 51.2428 101.796 51.8748C101.796 52.1148 101.816 52.3108 101.856 52.4628C101.896 52.6068 101.96 52.7468 102.048 52.8828L102.144 53.0028L102.048 53.1228H100.308L100.236 52.9188L100.404 52.8828C100.532 52.8508 100.616 52.8028 100.656 52.7388C100.696 52.6668 100.716 52.5308 100.716 52.3308V49.9908C100.716 49.8388 100.664 49.7628 100.56 49.7628H100.176L100.14 49.6308C100.3 49.4948 100.5 49.3828 100.74 49.2948C100.98 49.2068 101.22 49.1628 101.46 49.1628C101.564 49.1628 101.644 49.1868 101.7 49.2348C101.764 49.2828 101.796 49.3468 101.796 49.4268V50.4588C101.908 50.0828 102.108 49.7708 102.396 49.5228C102.684 49.2668 102.988 49.1388 103.308 49.1388C103.652 49.1388 103.9 49.2508 104.052 49.4748C104.212 49.6988 104.292 50.0548 104.292 50.5428V52.4388ZM106.925 52.4388C106.925 52.6788 107.001 52.7988 107.153 52.7988C107.305 52.7988 107.453 52.7388 107.597 52.6188L107.693 52.7388C107.397 53.0668 107.049 53.2308 106.649 53.2308C106.361 53.2308 106.153 53.1588 106.025 53.0148C105.897 52.8628 105.833 52.6188 105.833 52.2828V49.9068C105.833 49.7948 105.781 49.7388 105.677 49.7388H105.305L105.269 49.6068C105.429 49.4708 105.629 49.3588 105.869 49.2708C106.109 49.1828 106.349 49.1388 106.589 49.1388C106.685 49.1388 106.765 49.1628 106.829 49.2108C106.893 49.2588 106.925 49.3228 106.925 49.4028V52.4388ZM105.713 47.9868C105.713 47.8428 105.793 47.6828 105.953 47.5068C106.113 47.3308 106.261 47.2428 106.397 47.2428C106.541 47.2428 106.693 47.3308 106.853 47.5068C107.021 47.6828 107.105 47.8428 107.105 47.9868C107.105 48.1388 107.021 48.3028 106.853 48.4788C106.693 48.6468 106.541 48.7308 106.397 48.7308C106.261 48.7308 106.113 48.6468 105.953 48.4788C105.793 48.3028 105.713 48.1388 105.713 47.9868ZM112.132 52.4388C112.132 52.6788 112.208 52.7988 112.36 52.7988C112.512 52.7988 112.66 52.7388 112.804 52.6188L112.9 52.7388C112.604 53.0668 112.256 53.2308 111.856 53.2308C111.568 53.2308 111.36 53.1588 111.232 53.0148C111.112 52.8628 111.052 52.6188 111.052 52.2828V50.4468C111.052 49.9828 110.904 49.7508 110.608 49.7508C110.32 49.7508 110.084 49.9468 109.9 50.3388C109.724 50.7308 109.636 51.2428 109.636 51.8748C109.636 52.1148 109.656 52.3108 109.696 52.4628C109.736 52.6068 109.8 52.7468 109.888 52.8828L109.984 53.0028L109.888 53.1228H108.148L108.076 52.9188L108.244 52.8828C108.372 52.8508 108.456 52.8028 108.496 52.7388C108.536 52.6668 108.556 52.5308 108.556 52.3308V49.9908C108.556 49.8388 108.504 49.7628 108.4 49.7628H108.016L107.98 49.6308C108.14 49.4948 108.34 49.3828 108.58 49.2948C108.82 49.2068 109.06 49.1628 109.3 49.1628C109.404 49.1628 109.484 49.1868 109.54 49.2348C109.604 49.2828 109.636 49.3468 109.636 49.4268V50.4588C109.748 50.0828 109.948 49.7708 110.236 49.5228C110.524 49.2668 110.828 49.1388 111.148 49.1388C111.492 49.1388 111.74 49.2508 111.892 49.4748C112.052 49.6988 112.132 50.0548 112.132 50.5428V52.4388ZM114.585 54.2508C114.585 54.4268 114.637 54.5708 114.741 54.6828C114.853 54.7948 114.993 54.8508 115.161 54.8508C115.721 54.8508 116.001 54.3948 116.001 53.4828V52.3188C115.801 52.5508 115.593 52.7228 115.377 52.8348C115.161 52.9468 114.921 53.0028 114.657 53.0028C114.265 53.0028 113.945 52.8388 113.697 52.5108C113.457 52.1828 113.337 51.7508 113.337 51.2148C113.337 50.5748 113.533 50.0708 113.925 49.7028C114.317 49.3268 114.845 49.1388 115.509 49.1388C115.685 49.1388 115.877 49.1548 116.085 49.1868C116.301 49.2188 116.433 49.2388 116.481 49.2468C116.817 49.2948 117.049 49.3268 117.177 49.3428L117.273 49.4388L117.177 49.5828C117.105 49.6788 117.069 49.7788 117.069 49.8828V53.1228C117.069 53.7548 116.885 54.2428 116.517 54.5868C116.157 54.9388 115.653 55.1148 115.005 55.1148C114.605 55.1148 114.281 55.0388 114.033 54.8868C113.785 54.7348 113.661 54.5348 113.661 54.2868C113.661 54.0708 113.725 53.8948 113.853 53.7588C113.981 53.6308 114.149 53.5668 114.357 53.5668C114.509 53.5668 114.657 53.5988 114.801 53.6628C114.657 53.8068 114.585 54.0028 114.585 54.2508ZM115.233 52.4268C115.553 52.4268 115.805 52.2588 115.989 51.9228V49.5348C115.805 49.4548 115.629 49.4148 115.461 49.4148C115.157 49.4148 114.925 49.5508 114.765 49.8228C114.613 50.0868 114.537 50.4748 114.537 50.9868C114.537 51.4508 114.597 51.8068 114.717 52.0548C114.837 52.3028 115.009 52.4268 115.233 52.4268ZM122.654 53.2308C121.798 53.2308 121.142 52.9588 120.686 52.4148C120.238 51.8708 120.014 51.1748 120.014 50.3268C120.014 49.4788 120.242 48.7828 120.698 48.2388C121.154 47.6868 121.814 47.4108 122.678 47.4108C123.23 47.4108 123.678 47.5188 124.022 47.7348C124.374 47.9428 124.55 48.2188 124.55 48.5628C124.55 48.8988 124.41 49.1628 124.13 49.3548C123.85 49.5468 123.498 49.6428 123.074 49.6428C123.314 49.3868 123.434 49.0388 123.434 48.5988C123.434 48.3428 123.354 48.1308 123.194 47.9628C123.042 47.7868 122.842 47.6988 122.594 47.6988C122.138 47.6988 121.802 47.9588 121.586 48.4788C121.378 48.9988 121.274 49.6148 121.274 50.3268C121.274 50.7828 121.338 51.1988 121.466 51.5748C121.602 51.9508 121.794 52.2508 122.042 52.4748C122.298 52.6908 122.59 52.7988 122.918 52.7988C123.294 52.7988 123.606 52.7228 123.854 52.5708C124.11 52.4108 124.342 52.1908 124.55 51.9108L124.694 52.0188C124.478 52.3788 124.198 52.6708 123.854 52.8948C123.518 53.1188 123.118 53.2308 122.654 53.2308ZM125.018 51.1908C125.018 50.5588 125.198 50.0588 125.558 49.6908C125.926 49.3228 126.422 49.1388 127.046 49.1388C127.67 49.1388 128.166 49.3268 128.534 49.7028C128.902 50.0708 129.086 50.5668 129.086 51.1908C129.086 51.8148 128.902 52.3108 128.534 52.6788C128.166 53.0468 127.67 53.2308 127.046 53.2308C126.422 53.2308 125.926 53.0468 125.558 52.6788C125.198 52.3108 125.018 51.8148 125.018 51.1908ZM127.874 51.2148C127.874 50.6788 127.798 50.2428 127.646 49.9068C127.494 49.5628 127.302 49.3908 127.07 49.3908C126.814 49.3908 126.606 49.5588 126.446 49.8948C126.286 50.2228 126.206 50.6548 126.206 51.1908C126.206 51.7348 126.278 52.1668 126.422 52.4868C126.574 52.8068 126.774 52.9668 127.022 52.9668C127.27 52.9668 127.474 52.8068 127.634 52.4868C127.794 52.1588 127.874 51.7348 127.874 51.2148ZM133.643 50.4588C133.635 50.0028 133.555 49.6708 133.403 49.4628C133.251 49.2468 133.011 49.1388 132.683 49.1388C132.371 49.1388 132.091 49.2668 131.843 49.5228C131.595 49.7788 131.419 50.0908 131.315 50.4588V49.4748C131.315 49.3948 131.283 49.3348 131.219 49.2948C131.163 49.2468 131.083 49.2228 130.979 49.2228C130.739 49.2228 130.499 49.2668 130.259 49.3548C130.019 49.4428 129.819 49.5548 129.659 49.6908L129.695 49.8108H130.079C130.183 49.8108 130.235 49.8708 130.235 49.9908V52.3308C130.235 52.5308 130.215 52.6668 130.175 52.7388C130.135 52.8028 130.051 52.8508 129.923 52.8828L129.755 52.9188L129.827 53.1228H131.567L131.663 53.0028L131.567 52.8828C131.471 52.7468 131.403 52.6068 131.363 52.4628C131.331 52.3188 131.315 52.1228 131.315 51.8748C131.315 51.3148 131.387 50.8228 131.531 50.3988C131.675 49.9668 131.875 49.7508 132.131 49.7508C132.435 49.7508 132.587 49.9828 132.587 50.4468V53.1228H133.919L134.015 53.0028L133.919 52.8828C133.831 52.7468 133.767 52.6068 133.727 52.4628C133.695 52.3188 133.675 52.1228 133.667 51.8748C133.667 51.3148 133.739 50.8228 133.883 50.3988C134.027 49.9668 134.227 49.7508 134.483 49.7508C134.787 49.7508 134.939 49.9828 134.939 50.4468V52.1748C134.939 52.5668 134.999 52.8428 135.119 53.0028C135.239 53.1548 135.447 53.2308 135.743 53.2308C136.143 53.2308 136.491 53.0668 136.787 52.7388L136.691 52.6188C136.547 52.7388 136.399 52.7988 136.247 52.7988C136.095 52.7988 136.019 52.6788 136.019 52.4388V50.5428C136.019 50.0628 135.939 49.7108 135.779 49.4868C135.627 49.2548 135.379 49.1388 135.035 49.1388C134.747 49.1388 134.475 49.2628 134.219 49.5108C133.963 49.7588 133.779 50.0748 133.667 50.4588H133.643ZM141.143 50.4588C141.135 50.0028 141.055 49.6708 140.903 49.4628C140.751 49.2468 140.511 49.1388 140.183 49.1388C139.871 49.1388 139.591 49.2668 139.343 49.5228C139.095 49.7788 138.919 50.0908 138.815 50.4588V49.4748C138.815 49.3948 138.783 49.3348 138.719 49.2948C138.663 49.2468 138.583 49.2228 138.479 49.2228C138.239 49.2228 137.999 49.2668 137.759 49.3548C137.519 49.4428 137.319 49.5548 137.159 49.6908L137.195 49.8108H137.579C137.683 49.8108 137.735 49.8708 137.735 49.9908V52.3308C137.735 52.5308 137.715 52.6668 137.675 52.7388C137.635 52.8028 137.551 52.8508 137.423 52.8828L137.255 52.9188L137.327 53.1228H139.067L139.163 53.0028L139.067 52.8828C138.971 52.7468 138.903 52.6068 138.863 52.4628C138.831 52.3188 138.815 52.1228 138.815 51.8748C138.815 51.3148 138.887 50.8228 139.031 50.3988C139.175 49.9668 139.375 49.7508 139.631 49.7508C139.935 49.7508 140.087 49.9828 140.087 50.4468V53.1228H141.419L141.515 53.0028L141.419 52.8828C141.331 52.7468 141.267 52.6068 141.227 52.4628C141.195 52.3188 141.175 52.1228 141.167 51.8748C141.167 51.3148 141.239 50.8228 141.383 50.3988C141.527 49.9668 141.727 49.7508 141.983 49.7508C142.287 49.7508 142.439 49.9828 142.439 50.4468V52.1748C142.439 52.5668 142.499 52.8428 142.619 53.0028C142.739 53.1548 142.947 53.2308 143.243 53.2308C143.643 53.2308 143.991 53.0668 144.287 52.7388L144.191 52.6188C144.047 52.7388 143.899 52.7988 143.747 52.7988C143.595 52.7988 143.519 52.6788 143.519 52.4388V50.5428C143.519 50.0628 143.439 49.7108 143.279 49.4868C143.127 49.2548 142.879 49.1388 142.535 49.1388C142.247 49.1388 141.975 49.2628 141.719 49.5108C141.463 49.7588 141.279 50.0748 141.167 50.4588H141.143ZM147.575 52.0308C147.463 52.3828 147.267 52.6708 146.987 52.8948C146.715 53.1188 146.423 53.2308 146.111 53.2308C145.759 53.2308 145.499 53.1188 145.331 52.8948C145.163 52.6708 145.079 52.3268 145.079 51.8628V49.9068C145.079 49.7948 145.027 49.7388 144.923 49.7388H144.551L144.515 49.6068C144.675 49.4708 144.875 49.3588 145.115 49.2708C145.355 49.1828 145.591 49.1388 145.823 49.1388C145.927 49.1388 146.007 49.1628 146.063 49.2108C146.127 49.2588 146.159 49.3228 146.159 49.4028V51.8028C146.159 52.0748 146.199 52.2868 146.279 52.4388C146.359 52.5828 146.471 52.6548 146.615 52.6548C146.911 52.6548 147.147 52.4748 147.323 52.1148C147.507 51.7468 147.599 51.2708 147.599 50.6868C147.599 50.3748 147.575 50.1348 147.527 49.9668C147.487 49.7908 147.411 49.6388 147.299 49.5108L147.191 49.3788L147.287 49.2708L148.667 49.1628V52.4388C148.667 52.6788 148.739 52.7988 148.883 52.7988C149.035 52.7988 149.183 52.7388 149.327 52.6188L149.423 52.7388C149.143 53.0668 148.795 53.2308 148.379 53.2308C148.075 53.2308 147.863 53.1428 147.743 52.9668C147.631 52.7908 147.575 52.4788 147.575 52.0308ZM153.956 52.4388C153.956 52.6788 154.032 52.7988 154.184 52.7988C154.336 52.7988 154.484 52.7388 154.628 52.6188L154.724 52.7388C154.428 53.0668 154.08 53.2308 153.68 53.2308C153.392 53.2308 153.184 53.1588 153.056 53.0148C152.936 52.8628 152.876 52.6188 152.876 52.2828V50.4468C152.876 49.9828 152.728 49.7508 152.432 49.7508C152.144 49.7508 151.908 49.9468 151.724 50.3388C151.548 50.7308 151.46 51.2428 151.46 51.8748C151.46 52.1148 151.48 52.3108 151.52 52.4628C151.56 52.6068 151.624 52.7468 151.712 52.8828L151.808 53.0028L151.712 53.1228H149.972L149.9 52.9188L150.068 52.8828C150.196 52.8508 150.28 52.8028 150.32 52.7388C150.36 52.6668 150.38 52.5308 150.38 52.3308V49.9908C150.38 49.8388 150.328 49.7628 150.224 49.7628H149.84L149.804 49.6308C149.964 49.4948 150.164 49.3828 150.404 49.2948C150.644 49.2068 150.884 49.1628 151.124 49.1628C151.228 49.1628 151.308 49.1868 151.364 49.2348C151.428 49.2828 151.46 49.3468 151.46 49.4268V50.4588C151.572 50.0828 151.772 49.7708 152.06 49.5228C152.348 49.2668 152.652 49.1388 152.972 49.1388C153.316 49.1388 153.564 49.2508 153.716 49.4748C153.876 49.6988 153.956 50.0548 153.956 50.5428V52.4388ZM156.589 52.4388C156.589 52.6788 156.665 52.7988 156.817 52.7988C156.969 52.7988 157.117 52.7388 157.261 52.6188L157.357 52.7388C157.061 53.0668 156.713 53.2308 156.313 53.2308C156.025 53.2308 155.817 53.1588 155.689 53.0148C155.561 52.8628 155.497 52.6188 155.497 52.2828V49.9068C155.497 49.7948 155.445 49.7388 155.341 49.7388H154.969L154.933 49.6068C155.093 49.4708 155.293 49.3588 155.533 49.2708C155.773 49.1828 156.013 49.1388 156.253 49.1388C156.349 49.1388 156.429 49.1628 156.493 49.2108C156.557 49.2588 156.589 49.3228 156.589 49.4028V52.4388ZM155.377 47.9868C155.377 47.8428 155.457 47.6828 155.617 47.5068C155.777 47.3308 155.925 47.2428 156.061 47.2428C156.205 47.2428 156.357 47.3308 156.517 47.5068C156.685 47.6828 156.769 47.8428 156.769 47.9868C156.769 48.1388 156.685 48.3028 156.517 48.4788C156.357 48.6468 156.205 48.7308 156.061 48.7308C155.925 48.7308 155.777 48.6468 155.617 48.4788C155.457 48.3028 155.377 48.1388 155.377 47.9868ZM158.952 53.2308C158.624 53.2308 158.388 53.1588 158.244 53.0148C158.1 52.8628 158.028 52.6188 158.028 52.2828V49.7388H157.428C157.428 49.6028 157.436 49.5148 157.452 49.4748C157.468 49.4348 157.516 49.4028 157.596 49.3788C157.86 49.3068 158.068 49.1948 158.22 49.0428C158.372 48.8908 158.496 48.6708 158.592 48.3828C158.616 48.2948 158.656 48.2428 158.712 48.2268C158.768 48.2028 158.904 48.1908 159.12 48.1908V49.2708H160.104C160.104 49.3748 160.088 49.4708 160.056 49.5588C160.024 49.6388 159.98 49.6988 159.924 49.7388H159.12V52.4388C159.12 52.6788 159.22 52.7988 159.42 52.7988C159.508 52.7988 159.604 52.7708 159.708 52.7148C159.82 52.6588 159.92 52.5828 160.008 52.4868L160.104 52.6068C159.76 53.0228 159.376 53.2308 158.952 53.2308ZM161.979 52.4388C161.979 52.6788 162.055 52.7988 162.207 52.7988C162.359 52.7988 162.507 52.7388 162.651 52.6188L162.747 52.7388C162.451 53.0668 162.103 53.2308 161.703 53.2308C161.415 53.2308 161.207 53.1588 161.079 53.0148C160.951 52.8628 160.887 52.6188 160.887 52.2828V49.9068C160.887 49.7948 160.835 49.7388 160.731 49.7388H160.359L160.323 49.6068C160.483 49.4708 160.683 49.3588 160.923 49.2708C161.163 49.1828 161.403 49.1388 161.643 49.1388C161.739 49.1388 161.819 49.1628 161.883 49.2108C161.947 49.2588 161.979 49.3228 161.979 49.4028V52.4388ZM160.767 47.9868C160.767 47.8428 160.847 47.6828 161.007 47.5068C161.167 47.3308 161.315 47.2428 161.451 47.2428C161.595 47.2428 161.747 47.3308 161.907 47.5068C162.075 47.6828 162.159 47.8428 162.159 47.9868C162.159 48.1388 162.075 48.3028 161.907 48.4788C161.747 48.6468 161.595 48.7308 161.451 48.7308C161.315 48.7308 161.167 48.6468 161.007 48.4788C160.847 48.3028 160.767 48.1388 160.767 47.9868ZM165.302 52.8348C165.534 52.8348 165.738 52.7948 165.914 52.7148C166.09 52.6268 166.262 52.4828 166.43 52.2828L166.574 52.3908C166.39 52.6548 166.154 52.8628 165.866 53.0148C165.586 53.1588 165.278 53.2308 164.942 53.2308C164.574 53.2308 164.242 53.1428 163.946 52.9668C163.658 52.7908 163.43 52.5508 163.262 52.2468C163.094 51.9348 163.01 51.5828 163.01 51.1908C163.01 50.5668 163.198 50.0708 163.574 49.7028C163.958 49.3268 164.466 49.1388 165.098 49.1388C165.546 49.1388 165.91 49.2468 166.19 49.4628C166.478 49.6708 166.622 49.9428 166.622 50.2788C166.622 50.6628 166.458 50.9708 166.13 51.2028C165.81 51.4268 165.37 51.5388 164.81 51.5388C164.586 51.5388 164.382 51.5228 164.198 51.4908C164.238 51.9068 164.358 52.2348 164.558 52.4748C164.758 52.7148 165.006 52.8348 165.302 52.8348ZM164.966 49.4268C164.718 49.4268 164.522 49.5788 164.378 49.8828C164.242 50.1788 164.174 50.5948 164.174 51.1308V51.3228C164.262 51.3228 164.37 51.3148 164.498 51.2988C164.834 51.2588 165.09 51.1508 165.266 50.9748C165.45 50.7908 165.542 50.5508 165.542 50.2548C165.542 50.0148 165.486 49.8188 165.374 49.6668C165.27 49.5068 165.134 49.4268 164.966 49.4268ZM168.335 49.9548C168.335 50.1548 168.411 50.3188 168.563 50.4468C168.723 50.5668 168.963 50.7028 169.283 50.8548C169.547 50.9828 169.751 51.0948 169.895 51.1908C170.039 51.2788 170.163 51.3988 170.267 51.5508C170.379 51.7028 170.435 51.8828 170.435 52.0908C170.435 52.4348 170.271 52.7108 169.943 52.9188C169.623 53.1268 169.191 53.2308 168.647 53.2308C168.239 53.2308 167.903 53.1588 167.639 53.0148C167.375 52.8628 167.243 52.6668 167.243 52.4268C167.243 52.2668 167.303 52.1348 167.423 52.0308C167.543 51.9188 167.691 51.8628 167.867 51.8628C168.003 51.8628 168.139 51.8908 168.275 51.9468C168.139 52.0508 168.071 52.2188 168.071 52.4508C168.071 52.6108 168.127 52.7348 168.239 52.8228C168.351 52.9108 168.487 52.9548 168.647 52.9548C168.831 52.9548 168.987 52.9068 169.115 52.8108C169.251 52.7148 169.319 52.5788 169.319 52.4028C169.319 52.2348 169.251 52.1028 169.115 52.0068C168.987 51.9028 168.783 51.7828 168.503 51.6468C168.247 51.5268 168.039 51.4188 167.879 51.3228C167.727 51.2188 167.595 51.0828 167.483 50.9148C167.371 50.7468 167.315 50.5428 167.315 50.3028C167.315 49.9428 167.467 49.6588 167.771 49.4508C168.075 49.2428 168.459 49.1388 168.923 49.1388C169.331 49.1388 169.663 49.2148 169.919 49.3668C170.183 49.5188 170.315 49.7148 170.315 49.9548C170.315 50.1388 170.259 50.2748 170.147 50.3628C170.035 50.4508 169.891 50.4948 169.715 50.4948C169.547 50.4948 169.399 50.4588 169.271 50.3868C169.415 50.2508 169.487 50.0788 169.487 49.8708C169.487 49.7348 169.435 49.6268 169.331 49.5468C169.227 49.4588 169.091 49.4148 168.923 49.4148C168.739 49.4148 168.595 49.4668 168.491 49.5708C168.387 49.6748 168.335 49.8028 168.335 49.9548ZM178.201 47.7828C178.073 47.9668 177.981 48.1548 177.925 48.3468C177.877 48.5388 177.853 48.7868 177.853 49.0908V52.4388C177.853 52.6068 177.889 52.7468 177.961 52.8588L178.069 53.0028L177.961 53.1228H176.713L174.049 48.5268V51.5508C174.049 51.8708 174.073 52.1268 174.121 52.3188C174.177 52.5028 174.269 52.6828 174.396 52.8588L174.505 53.0028L174.396 53.1228H173.077L172.993 52.9068C173.201 52.8508 173.345 52.7988 173.425 52.7508C173.513 52.7028 173.573 52.6348 173.604 52.5468C173.637 52.4588 173.653 52.3188 173.653 52.1268V48.9588C173.653 48.6068 173.621 48.3508 173.557 48.1908C173.493 48.0308 173.353 47.8588 173.137 47.6748L173.233 47.5188H174.793L177.469 52.1508V48.5148C177.469 48.2748 177.417 48.1068 177.313 48.0108C177.217 47.9148 177.013 47.8228 176.701 47.7348L176.773 47.5188H178.201L178.309 47.6508L178.201 47.7828ZM181.263 52.8348C181.495 52.8348 181.699 52.7948 181.875 52.7148C182.051 52.6268 182.223 52.4828 182.391 52.2828L182.535 52.3908C182.351 52.6548 182.115 52.8628 181.827 53.0148C181.547 53.1588 181.239 53.2308 180.903 53.2308C180.535 53.2308 180.203 53.1428 179.907 52.9668C179.619 52.7908 179.391 52.5508 179.223 52.2468C179.055 51.9348 178.971 51.5828 178.971 51.1908C178.971 50.5668 179.159 50.0708 179.535 49.7028C179.919 49.3268 180.427 49.1388 181.059 49.1388C181.507 49.1388 181.871 49.2468 182.151 49.4628C182.439 49.6708 182.583 49.9428 182.583 50.2788C182.583 50.6628 182.419 50.9708 182.091 51.2028C181.771 51.4268 181.331 51.5388 180.771 51.5388C180.547 51.5388 180.343 51.5228 180.159 51.4908C180.199 51.9068 180.319 52.2348 180.519 52.4748C180.719 52.7148 180.967 52.8348 181.263 52.8348ZM180.927 49.4268C180.679 49.4268 180.483 49.5788 180.339 49.8828C180.203 50.1788 180.135 50.5948 180.135 51.1308V51.3228C180.223 51.3228 180.331 51.3148 180.459 51.2988C180.795 51.2588 181.051 51.1508 181.227 50.9748C181.411 50.7908 181.503 50.5508 181.503 50.2548C181.503 50.0148 181.447 49.8188 181.335 49.6668C181.231 49.5068 181.095 49.4268 180.927 49.4268ZM184.44 53.2308C184.112 53.2308 183.876 53.1588 183.732 53.0148C183.588 52.8628 183.516 52.6188 183.516 52.2828V49.7388H182.916C182.916 49.6028 182.924 49.5148 182.94 49.4748C182.956 49.4348 183.004 49.4028 183.084 49.3788C183.348 49.3068 183.556 49.1948 183.708 49.0428C183.86 48.8908 183.984 48.6708 184.08 48.3828C184.104 48.2948 184.144 48.2428 184.2 48.2268C184.256 48.2028 184.392 48.1908 184.608 48.1908V49.2708H185.592C185.592 49.3748 185.576 49.4708 185.544 49.5588C185.512 49.6388 185.468 49.6988 185.412 49.7388H184.608V52.4388C184.608 52.6788 184.708 52.7988 184.908 52.7988C184.996 52.7988 185.092 52.7708 185.196 52.7148C185.308 52.6588 185.408 52.5828 185.496 52.4868L185.592 52.6068C185.248 53.0228 184.864 53.2308 184.44 53.2308ZM187.78 53.2308C187.396 53.2308 187.096 53.1068 186.88 52.8588C186.672 52.6028 186.528 52.1948 186.448 51.6348L186.196 49.9068C186.188 49.8428 186.172 49.7988 186.148 49.7748C186.124 49.7508 186.088 49.7388 186.04 49.7388H185.716L185.68 49.6068C185.84 49.4628 186.032 49.3508 186.256 49.2708C186.48 49.1828 186.7 49.1388 186.916 49.1388C187.036 49.1388 187.12 49.1748 187.168 49.2468C187.224 49.3188 187.268 49.4588 187.3 49.6668L187.612 51.8268C187.668 52.2188 187.732 52.4868 187.804 52.6308C187.876 52.7748 187.984 52.8468 188.128 52.8468C188.352 52.8468 188.528 52.7108 188.656 52.4388C188.792 52.1588 188.86 51.7908 188.86 51.3348C188.86 50.8708 188.8 50.3948 188.68 49.9068C188.664 49.8428 188.648 49.7988 188.632 49.7748C188.616 49.7508 188.58 49.7388 188.524 49.7388H188.212L188.176 49.6068C188.328 49.4628 188.516 49.3508 188.74 49.2708C188.964 49.1828 189.188 49.1388 189.412 49.1388C189.524 49.1388 189.608 49.1788 189.664 49.2588C189.72 49.3308 189.76 49.4668 189.784 49.6668L190.084 51.7668C190.148 52.1988 190.216 52.4868 190.288 52.6308C190.368 52.7748 190.464 52.8468 190.576 52.8468C190.792 52.8468 190.964 52.6868 191.092 52.3668C191.228 52.0388 191.296 51.6148 191.296 51.0948C191.296 50.7428 191.26 50.4388 191.188 50.1828C191.124 49.9188 191.016 49.6868 190.864 49.4868L190.768 49.3548L190.852 49.2588L191.86 49.1388C191.884 49.4508 191.896 49.7268 191.896 49.9668C191.896 50.9908 191.748 51.7908 191.452 52.3668C191.164 52.9428 190.748 53.2308 190.204 53.2308C189.876 53.2308 189.628 53.1468 189.46 52.9788C189.292 52.8108 189.152 52.5028 189.04 52.0548C188.88 52.8388 188.46 53.2308 187.78 53.2308ZM192.635 51.1908C192.635 50.5588 192.815 50.0588 193.175 49.6908C193.543 49.3228 194.039 49.1388 194.663 49.1388C195.287 49.1388 195.783 49.3268 196.151 49.7028C196.519 50.0708 196.703 50.5668 196.703 51.1908C196.703 51.8148 196.519 52.3108 196.151 52.6788C195.783 53.0468 195.287 53.2308 194.663 53.2308C194.039 53.2308 193.543 53.0468 193.175 52.6788C192.815 52.3108 192.635 51.8148 192.635 51.1908ZM195.491 51.2148C195.491 50.6788 195.415 50.2428 195.263 49.9068C195.111 49.5628 194.919 49.3908 194.687 49.3908C194.431 49.3908 194.223 49.5588 194.063 49.8948C193.903 50.2228 193.823 50.6548 193.823 51.1908C193.823 51.7348 193.895 52.1668 194.039 52.4868C194.191 52.8068 194.391 52.9668 194.639 52.9668C194.887 52.9668 195.091 52.8068 195.251 52.4868C195.411 52.1588 195.491 51.7348 195.491 51.2148ZM199.869 49.1388C200.125 49.1388 200.333 49.2148 200.493 49.3668C200.653 49.5108 200.733 49.6988 200.733 49.9308C200.733 50.1468 200.669 50.3228 200.541 50.4588C200.413 50.5868 200.245 50.6508 200.037 50.6508C199.877 50.6508 199.729 50.6188 199.593 50.5548C199.737 50.4348 199.809 50.2548 199.809 50.0148C199.809 49.9028 199.785 49.8148 199.737 49.7508C199.689 49.6868 199.625 49.6548 199.545 49.6548C199.353 49.6548 199.193 49.8508 199.065 50.2428C198.937 50.6268 198.873 51.1068 198.873 51.6828C198.873 51.9788 198.889 52.2148 198.921 52.3908C198.961 52.5668 199.025 52.7308 199.113 52.8828L199.209 53.0028L199.113 53.1228H197.373L197.301 52.9188L197.469 52.8828C197.597 52.8508 197.681 52.8028 197.721 52.7388C197.761 52.6668 197.781 52.5308 197.781 52.3308V49.9908C197.781 49.8388 197.729 49.7628 197.625 49.7628H197.253L197.205 49.6308C197.357 49.4948 197.545 49.3828 197.769 49.2948C198.001 49.2068 198.229 49.1628 198.453 49.1628C198.557 49.1628 198.641 49.1868 198.705 49.2348C198.769 49.2828 198.801 49.3468 198.801 49.4268V50.3028H198.837C199.005 49.5268 199.349 49.1388 199.869 49.1388ZM205.525 52.7628C205.245 53.0748 204.897 53.2308 204.481 53.2308C204.225 53.2308 204.021 53.1748 203.869 53.0628C203.725 52.9508 203.613 52.7628 203.533 52.4988L203.161 51.4428C203.113 51.3068 203.049 51.2028 202.969 51.1308C202.897 51.0588 202.797 51.0068 202.669 50.9748V51.8748C202.669 52.1228 202.685 52.3188 202.717 52.4628C202.757 52.6068 202.821 52.7468 202.909 52.8828L203.005 53.0028L202.909 53.1228H201.169L201.097 52.9188L201.265 52.8828C201.393 52.8508 201.477 52.8028 201.517 52.7388C201.557 52.6668 201.577 52.5308 201.577 52.3308V47.9988C201.577 47.8868 201.525 47.8308 201.421 47.8308H201.049L201.001 47.7108C201.153 47.5668 201.349 47.4548 201.589 47.3748C201.837 47.2868 202.081 47.2428 202.321 47.2428C202.425 47.2428 202.509 47.2668 202.573 47.3148C202.637 47.3548 202.669 47.4148 202.669 47.4948V50.7468L203.389 50.2188C203.557 50.0988 203.673 50.0028 203.737 49.9308C203.801 49.8588 203.833 49.7828 203.833 49.7028C203.833 49.5908 203.785 49.4948 203.689 49.4148L203.593 49.3428L203.689 49.2228H205.141L205.213 49.4268C205.013 49.4748 204.789 49.5868 204.541 49.7628L203.125 50.7948C203.477 50.8348 203.749 50.9188 203.941 51.0468C204.133 51.1748 204.273 51.3588 204.361 51.5988L204.697 52.5588C204.753 52.7348 204.865 52.8228 205.033 52.8228C205.153 52.8228 205.285 52.7628 205.429 52.6428L205.525 52.7628Z" fill="#004078"/>
<defs>
<linearGradient id="paint0_linear_369_70" x1="18.4549" y1="18.4548" x2="44.2918" y2="44.2916" gradientUnits="userSpaceOnUse">
<stop stop-color="#54D8FD"/>
<stop offset="1" stop-color="#0080EC"/>
</linearGradient>
<linearGradient id="paint1_linear_369_70" x1="62.5971" y1="62.72" x2="36.7603" y2="36.8832" gradientUnits="userSpaceOnUse">
<stop stop-color="#54D8FD"/>
<stop offset="1" stop-color="#0080EC"/>
</linearGradient>
</defs>
</svg>
