<svg width="82" height="82" viewBox="0 0 82 82" fill="none"
    xmlns="http://www.w3.org/2000/svg">
    <path d="M43.7029 7.38015C24.0346 8.14718 8.14664 24.042 7.38018 43.7029C7.35134 44.4422 7.94536 45.0512 8.68529 45.0483L12.6191 45.0328C13.325 45.0305 13.9023 44.4682 13.9328 43.7628C14.6387 27.6379 27.635 14.6381 43.7634 13.9322C44.4688 13.9016 45.0305 13.3238 45.0334 12.6185L45.0489 8.68468C45.0512 7.94533 44.4422 7.35131 43.7029 7.38015ZM36.9098 36.9097C34.8711 38.9484 34.8711 42.253 36.9098 44.2917C38.9484 46.3304 42.253 46.3304 44.2917 44.2917C46.3304 42.253 46.3304 38.9484 44.2917 36.9097C42.253 34.871 38.9484 34.871 36.9098 36.9097ZM43.7773 20.4007C31.2516 21.1694 21.1683 31.2654 20.4007 43.7772C20.3546 44.527 20.9526 45.1504 21.7029 45.1452L25.6494 45.1193C26.3368 45.1147 26.917 44.5806 26.9672 43.8937C27.6235 34.867 34.8872 27.6217 43.8932 26.9677C44.5801 26.9175 45.1147 26.3379 45.1187 25.6499L45.1447 21.7035C45.1504 20.9526 44.5259 20.3545 43.7773 20.4007Z" fill="url(#paint0_linear_201_70)"/>
    <path d="M37.3489 73.7947C57.0172 73.0276 72.9051 57.1328 73.6716 37.472C73.7004 36.7326 73.1064 36.1236 72.3665 36.1265L68.4327 36.142C67.7268 36.1444 67.1495 36.7067 67.1189 37.412C66.413 53.5369 53.4167 66.5367 37.2883 67.2426C36.583 67.2732 36.0213 67.851 36.0184 68.5563L36.0028 72.4901C36.0005 73.2295 36.6095 73.8235 37.3489 73.7947ZM44.142 44.2651C46.1807 42.2264 46.1807 38.9218 44.142 36.8831C42.1033 34.8444 38.7987 34.8444 36.76 36.8831C34.7214 38.9218 34.7214 42.2264 36.76 44.2651C38.7987 46.3038 42.1033 46.3038 44.142 44.2651ZM37.2745 60.7741C49.8002 60.0054 59.8835 49.9094 60.6511 37.3976C60.6972 36.6478 60.0992 36.0244 59.3488 36.0296L55.4024 36.0555C54.7149 36.0602 54.1348 36.5942 54.0846 37.2811C53.4283 46.3078 46.1646 53.5531 37.1586 54.2071C36.4717 54.2573 35.9371 54.8369 35.933 55.5249L35.9071 59.4713C35.9013 60.2222 36.5259 60.8203 37.2745 60.7741Z" fill="url(#paint1_linear_201_70)"/>
    <defs>
        <linearGradient id="paint0_linear_201_70" x1="18.4549" y1="18.4548" x2="44.2918" y2="44.2916" gradientUnits="userSpaceOnUse">
            <stop stop-color="#54D8FD"/>
            <stop offset="1" stop-color="#0080EC"/>
        </linearGradient>
        <linearGradient id="paint1_linear_201_70" x1="62.5969" y1="62.72" x2="36.76" y2="36.8832" gradientUnits="userSpaceOnUse">
            <stop stop-color="#54D8FD"/>
            <stop offset="1" stop-color="#0080EC"/>
        </linearGradient>
    </defs>
</svg>
