<svg width="70" height="40" viewBox="0 0 70 40" fill="none" xmlns="http://www.w3.org/2000/svg">
<path d="M1.092 4.8V3.792H1.456C1.43733 3.792 2.33333 3.81067 4.144 3.848C5.69333 3.86667 7.35467 3.86667 9.128 3.848L12.18 3.792H12.572V4.8V5.808H10.696H8.792V13.396V20.984H9.996C10.8547 20.984 11.368 20.9653 11.536 20.928C12.3013 20.8347 12.992 20.5827 13.608 20.172C14.7467 19.388 15.4653 18.0813 15.764 16.252C15.9133 15.4307 15.988 14.8987 15.988 14.656C15.988 14.6373 16.324 14.628 16.996 14.628H18.004V14.768C17.9667 14.8613 17.8267 16.2053 17.584 18.8C17.304 21.4693 17.1547 22.8227 17.136 22.86V23H9.1H1.092V21.992V20.984H2.604H4.116V13.396V5.808H2.604H1.092V4.8ZM31.6507 3.512H33.2187C33.9841 3.568 34.6934 3.72667 35.3467 3.988C36.0747 4.23067 36.7747 4.604 37.4467 5.108C37.6147 5.23867 37.6987 5.28533 37.6987 5.248C37.7174 5.248 38.0627 4.968 38.7347 4.408C39.4814 3.81067 39.8454 3.52133 39.8267 3.54C39.9761 3.44667 40.2467 3.44667 40.6387 3.54C40.7321 3.596 40.7881 3.68933 40.8067 3.82C40.8254 4.00667 40.8347 5.22 40.8347 7.46C40.8347 9.94267 40.8067 11.2213 40.7507 11.296L40.6387 11.352C40.5641 11.3893 40.2654 11.408 39.7427 11.408C39.2201 11.408 38.9214 11.3893 38.8467 11.352C38.7161 11.2587 38.6414 11.1187 38.6227 10.932C38.4734 9.55067 37.9787 8.356 37.1387 7.348C36.7654 6.93733 36.4107 6.61067 36.0747 6.368C35.4774 5.93867 34.8521 5.67733 34.1987 5.584C33.3774 5.416 32.3694 5.46267 31.1747 5.724C29.9801 5.96667 29.0187 6.396 28.2907 7.012C27.8614 7.348 27.5441 7.684 27.3387 8.02C26.5547 9.15867 26.1627 10.9507 26.1627 13.396C26.1627 15.9533 26.6014 17.8013 27.4787 18.94C27.5721 19.0707 27.6841 19.2013 27.8147 19.332C28.0574 19.5747 28.2161 19.724 28.2907 19.78C29.0187 20.396 29.9801 20.8253 31.1747 21.068C32.2201 21.292 33.1441 21.3573 33.9467 21.264C35.6454 21.096 36.9614 20.34 37.8947 18.996C38.4547 18.212 38.7627 17.344 38.8187 16.392C38.8187 16.0747 38.8841 15.8787 39.0147 15.804C39.0894 15.7667 39.3601 15.748 39.8267 15.748C40.2934 15.748 40.5641 15.7667 40.6387 15.804C40.7694 15.8973 40.8347 16.112 40.8347 16.448C40.7787 17.344 40.5734 18.156 40.2187 18.884C39.3414 20.7133 37.8387 22.0013 35.7107 22.748C34.9267 23.028 34.0961 23.2053 33.2187 23.28C32.6214 23.336 31.8654 23.3267 30.9507 23.252C28.5987 22.9907 26.6387 22.3187 25.0707 21.236C23.5774 20.1347 22.5134 18.7627 21.8787 17.12C21.5987 16.4107 21.3841 15.5707 21.2347 14.6C21.1601 13.928 21.1601 13.1627 21.2347 12.304C21.2347 12.248 21.2347 12.2013 21.2347 12.164C21.4214 10.6707 21.8881 9.32667 22.6347 8.132C23.7734 6.284 25.5001 4.968 27.8147 4.184C29.0094 3.81067 30.2881 3.58667 31.6507 3.512ZM43.7483 4.8V3.792H47.6123H51.5043L51.6163 3.848C51.6723 3.86667 53.3243 5.87333 56.5723 9.868C59.8763 13.9373 61.5003 15.944 61.4443 15.888L61.5283 15.972V10.904V5.808H60.0163H58.5043V4.8V3.792H58.7843L60.8283 3.848C62.0229 3.86667 63.2176 3.86667 64.4123 3.848C65.7563 3.81067 66.4376 3.792 66.4563 3.792H66.7363V4.8V5.808H65.2243H63.7123V14.208C63.7123 19.7893 63.6936 22.6173 63.6563 22.692C63.6189 22.804 63.5443 22.888 63.4323 22.944C63.3576 22.9813 63.0869 23 62.6203 23C62.1536 23 61.8829 22.9813 61.8083 22.944C61.7709 22.9253 59.6336 20.3213 55.3963 15.132C51.1216 9.812 49.0029 7.18933 49.0403 7.264L48.9563 7.18V14.068V20.984H50.4683H51.9803V21.992V23H51.7003C51.7189 23 51.0376 22.9813 49.6562 22.944C48.4616 22.9253 47.2669 22.9253 46.0723 22.944C44.6909 22.9813 44.0096 23 44.0283 23H43.7483V21.992V20.984H45.2603H46.7722V13.396V5.808H45.2603H43.7483V4.8Z" fill="#47A9FF"/>
<path d="M3.524 34.32C3.524 34.64 3.636 34.904 3.86 35.112C4.084 35.312 4.42 35.54 4.868 35.796C5.196 35.98 5.456 36.14 5.648 36.276C5.84 36.412 6.004 36.584 6.14 36.792C6.276 37 6.344 37.24 6.344 37.512C6.344 38.008 6.144 38.4 5.744 38.688C5.352 38.968 4.824 39.108 4.16 39.108C3.592 39.108 3.132 39 2.78 38.784C2.436 38.568 2.264 38.276 2.264 37.908C2.264 37.668 2.344 37.48 2.504 37.344C2.672 37.2 2.88 37.128 3.128 37.128C3.32 37.128 3.504 37.176 3.68 37.272C3.432 37.4 3.308 37.652 3.308 38.028C3.308 38.252 3.388 38.444 3.548 38.604C3.716 38.756 3.94 38.832 4.22 38.832C4.508 38.832 4.732 38.752 4.892 38.592C5.06 38.432 5.144 38.232 5.144 37.992C5.144 37.712 5.04 37.484 4.832 37.308C4.632 37.124 4.324 36.912 3.908 36.672C3.58 36.496 3.308 36.332 3.092 36.18C2.884 36.028 2.708 35.84 2.564 35.616C2.42 35.392 2.348 35.128 2.348 34.824C2.348 34.368 2.54 34 2.924 33.72C3.316 33.432 3.824 33.288 4.448 33.288C4.984 33.288 5.42 33.392 5.756 33.6C6.092 33.8 6.26 34.068 6.26 34.404C6.26 34.62 6.188 34.792 6.044 34.92C5.9 35.04 5.704 35.1 5.456 35.1C5.28 35.1 5.096 35.056 4.904 34.968C5.008 34.888 5.088 34.788 5.144 34.668C5.2 34.548 5.228 34.424 5.228 34.296C5.228 34.096 5.156 33.928 5.012 33.792C4.868 33.648 4.656 33.576 4.376 33.576C4.104 33.576 3.892 33.648 3.74 33.792C3.596 33.936 3.524 34.112 3.524 34.32ZM6.92834 37.068C6.92834 36.436 7.10834 35.936 7.46834 35.568C7.83634 35.2 8.33234 35.016 8.95634 35.016C9.58034 35.016 10.0763 35.204 10.4443 35.58C10.8123 35.948 10.9963 36.444 10.9963 37.068C10.9963 37.692 10.8123 38.188 10.4443 38.556C10.0763 38.924 9.58034 39.108 8.95634 39.108C8.33234 39.108 7.83634 38.924 7.46834 38.556C7.10834 38.188 6.92834 37.692 6.92834 37.068ZM9.78434 37.092C9.78434 36.556 9.70834 36.12 9.55634 35.784C9.40434 35.44 9.21234 35.268 8.98034 35.268C8.72434 35.268 8.51634 35.436 8.35634 35.772C8.19634 36.1 8.11634 36.532 8.11634 37.068C8.11634 37.612 8.18834 38.044 8.33234 38.364C8.48434 38.684 8.68434 38.844 8.93234 38.844C9.18034 38.844 9.38434 38.684 9.54434 38.364C9.70434 38.036 9.78434 37.612 9.78434 37.092ZM15.0855 36.072C15.0855 36.336 15.0055 36.544 14.8455 36.696C14.6855 36.848 14.4895 36.924 14.2575 36.924C14.0735 36.924 13.9055 36.876 13.7535 36.78C13.9295 36.62 14.0175 36.396 14.0175 36.108C14.0175 35.876 13.9695 35.688 13.8735 35.544C13.7775 35.392 13.6375 35.316 13.4535 35.316C13.2455 35.316 13.0735 35.48 12.9375 35.808C12.8095 36.128 12.7455 36.548 12.7455 37.068C12.7455 37.564 12.8375 37.964 13.0215 38.268C13.2135 38.564 13.4815 38.712 13.8255 38.712C14.0655 38.712 14.2695 38.668 14.4375 38.58C14.6135 38.492 14.7775 38.364 14.9295 38.196L15.0735 38.292C14.9055 38.532 14.6855 38.728 14.4135 38.88C14.1415 39.032 13.8255 39.108 13.4655 39.108C12.9055 39.108 12.4455 38.92 12.0855 38.544C11.7255 38.168 11.5455 37.684 11.5455 37.092C11.5455 36.46 11.7335 35.956 12.1095 35.58C12.4855 35.204 12.9855 35.016 13.6095 35.016C14.0495 35.016 14.4055 35.116 14.6775 35.316C14.9495 35.508 15.0855 35.76 15.0855 36.072ZM17.0888 38.316C17.0888 38.556 17.1648 38.676 17.3168 38.676C17.4688 38.676 17.6168 38.616 17.7608 38.496L17.8568 38.616C17.5608 38.944 17.2128 39.108 16.8128 39.108C16.5248 39.108 16.3168 39.036 16.1888 38.892C16.0608 38.74 15.9968 38.496 15.9968 38.16V35.784C15.9968 35.672 15.9448 35.616 15.8408 35.616H15.4688L15.4328 35.484C15.5928 35.348 15.7928 35.236 16.0328 35.148C16.2728 35.06 16.5128 35.016 16.7528 35.016C16.8488 35.016 16.9288 35.04 16.9928 35.088C17.0568 35.136 17.0888 35.2 17.0888 35.28V38.316ZM15.8768 33.864C15.8768 33.72 15.9568 33.56 16.1168 33.384C16.2768 33.208 16.4248 33.12 16.5608 33.12C16.7048 33.12 16.8568 33.208 17.0168 33.384C17.1848 33.56 17.2688 33.72 17.2688 33.864C17.2688 34.016 17.1848 34.18 17.0168 34.356C16.8568 34.524 16.7048 34.608 16.5608 34.608C16.4248 34.608 16.2768 34.524 16.1168 34.356C15.9568 34.18 15.8768 34.016 15.8768 33.864ZM19.4998 36.348C19.3318 36.444 19.1318 36.492 18.8998 36.492C18.7318 36.492 18.5998 36.444 18.5038 36.348C18.4078 36.244 18.3598 36.1 18.3598 35.916C18.3598 35.644 18.4918 35.428 18.7558 35.268C19.0278 35.1 19.3798 35.016 19.8118 35.016C20.3238 35.016 20.7238 35.128 21.0117 35.352C21.3078 35.576 21.4558 35.88 21.4558 36.264V38.34C21.4558 38.564 21.5358 38.676 21.6958 38.676C21.8478 38.676 21.9958 38.616 22.1398 38.496L22.2358 38.616C21.9398 38.944 21.5878 39.108 21.1798 39.108C20.9398 39.108 20.7558 39.048 20.6278 38.928C20.5078 38.808 20.4358 38.62 20.4118 38.364H20.3638C20.2358 38.596 20.0638 38.78 19.8478 38.916C19.6398 39.044 19.3998 39.108 19.1278 39.108C18.8238 39.108 18.5798 39.016 18.3958 38.832C18.2118 38.64 18.1198 38.392 18.1198 38.088C18.1198 37.744 18.2838 37.472 18.6118 37.272C18.9398 37.072 19.3838 36.972 19.9438 36.972C20.0478 36.972 20.1958 36.98 20.3878 36.996V36.396C20.3878 36.004 20.3398 35.724 20.2438 35.556C20.1478 35.38 19.9918 35.292 19.7758 35.292C19.6238 35.292 19.5038 35.34 19.4158 35.436C19.3278 35.532 19.2838 35.656 19.2838 35.808C19.2838 36.048 19.3558 36.228 19.4998 36.348ZM19.6798 38.508C20.1518 38.508 20.3878 38.08 20.3878 37.224C19.9878 37.224 19.6878 37.292 19.4878 37.428C19.2878 37.556 19.1878 37.74 19.1878 37.98C19.1878 38.14 19.2318 38.268 19.3198 38.364C19.4078 38.46 19.5278 38.508 19.6798 38.508ZM23.9306 38.316C23.9306 38.556 24.0066 38.676 24.1586 38.676C24.3106 38.676 24.4586 38.616 24.6026 38.496L24.6986 38.616C24.4186 38.944 24.0706 39.108 23.6546 39.108C23.3746 39.108 23.1706 39.044 23.0426 38.916C22.9146 38.78 22.8506 38.568 22.8506 38.28V33.876C22.8506 33.764 22.7986 33.708 22.6946 33.708H22.3106L22.2746 33.588C22.4266 33.444 22.6226 33.332 22.8626 33.252C23.1106 33.164 23.3546 33.12 23.5946 33.12C23.6986 33.12 23.7786 33.144 23.8346 33.192C23.8986 33.232 23.9306 33.292 23.9306 33.372V38.316ZM32.0911 33.66C31.9631 33.844 31.8711 34.032 31.8151 34.224C31.7671 34.416 31.7431 34.664 31.7431 34.968V38.316C31.7431 38.484 31.7791 38.624 31.8511 38.736L31.9591 38.88L31.8511 39H30.6031L27.9391 34.404V37.428C27.9391 37.748 27.9631 38.004 28.0111 38.196C28.0671 38.38 28.1591 38.56 28.2871 38.736L28.3951 38.88L28.2871 39H26.9671L26.8831 38.784C27.0911 38.728 27.2351 38.676 27.3151 38.628C27.4031 38.58 27.4631 38.512 27.4951 38.424C27.5271 38.336 27.5431 38.196 27.5431 38.004V34.836C27.5431 34.484 27.5111 34.228 27.4471 34.068C27.3831 33.908 27.2431 33.736 27.0271 33.552L27.1231 33.396H28.6831L31.3591 38.028V34.392C31.3591 34.152 31.3071 33.984 31.2031 33.888C31.1071 33.792 30.9031 33.7 30.5911 33.612L30.6631 33.396H32.0911L32.1991 33.528L32.0911 33.66ZM35.1539 38.712C35.3859 38.712 35.5899 38.672 35.7659 38.592C35.9419 38.504 36.1139 38.36 36.2819 38.16L36.4259 38.268C36.2419 38.532 36.0059 38.74 35.7179 38.892C35.4379 39.036 35.1299 39.108 34.7939 39.108C34.4259 39.108 34.0939 39.02 33.7979 38.844C33.5099 38.668 33.2819 38.428 33.1139 38.124C32.9459 37.812 32.8619 37.46 32.8619 37.068C32.8619 36.444 33.0499 35.948 33.4259 35.58C33.8099 35.204 34.3179 35.016 34.9499 35.016C35.3979 35.016 35.7619 35.124 36.0419 35.34C36.3299 35.548 36.4739 35.82 36.4739 36.156C36.4739 36.54 36.3099 36.848 35.9819 37.08C35.6619 37.304 35.2219 37.416 34.6619 37.416C34.4379 37.416 34.2339 37.4 34.0499 37.368C34.0899 37.784 34.2099 38.112 34.4099 38.352C34.6099 38.592 34.8579 38.712 35.1539 38.712ZM34.8179 35.304C34.5699 35.304 34.3739 35.456 34.2299 35.76C34.0939 36.056 34.0259 36.472 34.0259 37.008V37.2C34.1139 37.2 34.2219 37.192 34.3499 37.176C34.6859 37.136 34.9419 37.028 35.1179 36.852C35.3019 36.668 35.3939 36.428 35.3939 36.132C35.3939 35.892 35.3379 35.696 35.2259 35.544C35.1219 35.384 34.9859 35.304 34.8179 35.304ZM38.3307 39.108C38.0027 39.108 37.7667 39.036 37.6227 38.892C37.4787 38.74 37.4067 38.496 37.4067 38.16V35.616H36.8067C36.8067 35.48 36.8147 35.392 36.8307 35.352C36.8467 35.312 36.8947 35.28 36.9747 35.256C37.2387 35.184 37.4467 35.072 37.5987 34.92C37.7507 34.768 37.8747 34.548 37.9707 34.26C37.9947 34.172 38.0347 34.12 38.0907 34.104C38.1467 34.08 38.2827 34.068 38.4987 34.068V35.148H39.4827C39.4827 35.252 39.4667 35.348 39.4347 35.436C39.4027 35.516 39.3587 35.576 39.3027 35.616H38.4987V38.316C38.4987 38.556 38.5987 38.676 38.7987 38.676C38.8867 38.676 38.9827 38.648 39.0867 38.592C39.1987 38.536 39.2987 38.46 39.3867 38.364L39.4827 38.484C39.1387 38.9 38.7547 39.108 38.3307 39.108ZM41.6703 39.108C41.2863 39.108 40.9863 38.984 40.7703 38.736C40.5623 38.48 40.4183 38.072 40.3383 37.512L40.0863 35.784C40.0783 35.72 40.0623 35.676 40.0383 35.652C40.0143 35.628 39.9783 35.616 39.9303 35.616H39.6063L39.5703 35.484C39.7303 35.34 39.9223 35.228 40.1463 35.148C40.3703 35.06 40.5903 35.016 40.8063 35.016C40.9263 35.016 41.0103 35.052 41.0583 35.124C41.1143 35.196 41.1583 35.336 41.1903 35.544L41.5023 37.704C41.5583 38.096 41.6223 38.364 41.6943 38.508C41.7663 38.652 41.8743 38.724 42.0183 38.724C42.2423 38.724 42.4183 38.588 42.5463 38.316C42.6823 38.036 42.7503 37.668 42.7503 37.212C42.7503 36.748 42.6903 36.272 42.5703 35.784C42.5543 35.72 42.5383 35.676 42.5223 35.652C42.5063 35.628 42.4703 35.616 42.4143 35.616H42.1023L42.0663 35.484C42.2183 35.34 42.4063 35.228 42.6303 35.148C42.8543 35.06 43.0783 35.016 43.3023 35.016C43.4143 35.016 43.4983 35.056 43.5543 35.136C43.6103 35.208 43.6503 35.344 43.6743 35.544L43.9743 37.644C44.0383 38.076 44.1063 38.364 44.1783 38.508C44.2583 38.652 44.3543 38.724 44.4663 38.724C44.6823 38.724 44.8543 38.564 44.9823 38.244C45.1183 37.916 45.1863 37.492 45.1863 36.972C45.1863 36.62 45.1503 36.316 45.0783 36.06C45.0143 35.796 44.9063 35.564 44.7543 35.364L44.6583 35.232L44.7423 35.136L45.7503 35.016C45.7743 35.328 45.7863 35.604 45.7863 35.844C45.7863 36.868 45.6383 37.668 45.3423 38.244C45.0543 38.82 44.6383 39.108 44.0943 39.108C43.7663 39.108 43.5183 39.024 43.3503 38.856C43.1823 38.688 43.0423 38.38 42.9303 37.932C42.7703 38.716 42.3503 39.108 41.6703 39.108ZM46.526 37.068C46.526 36.436 46.706 35.936 47.066 35.568C47.434 35.2 47.93 35.016 48.554 35.016C49.178 35.016 49.674 35.204 50.042 35.58C50.41 35.948 50.594 36.444 50.594 37.068C50.594 37.692 50.41 38.188 50.042 38.556C49.674 38.924 49.178 39.108 48.554 39.108C47.93 39.108 47.434 38.924 47.066 38.556C46.706 38.188 46.526 37.692 46.526 37.068ZM49.382 37.092C49.382 36.556 49.306 36.12 49.154 35.784C49.002 35.44 48.81 35.268 48.578 35.268C48.322 35.268 48.114 35.436 47.954 35.772C47.794 36.1 47.714 36.532 47.714 37.068C47.714 37.612 47.786 38.044 47.93 38.364C48.082 38.684 48.282 38.844 48.53 38.844C48.778 38.844 48.982 38.684 49.142 38.364C49.302 38.036 49.382 37.612 49.382 37.092ZM53.7592 35.016C54.0152 35.016 54.2232 35.092 54.3832 35.244C54.5432 35.388 54.6232 35.576 54.6232 35.808C54.6232 36.024 54.5592 36.2 54.4312 36.336C54.3032 36.464 54.1352 36.528 53.9272 36.528C53.7672 36.528 53.6192 36.496 53.4832 36.432C53.6272 36.312 53.6992 36.132 53.6992 35.892C53.6992 35.78 53.6752 35.692 53.6272 35.628C53.5792 35.564 53.5152 35.532 53.4352 35.532C53.2432 35.532 53.0832 35.728 52.9552 36.12C52.8272 36.504 52.7632 36.984 52.7632 37.56C52.7632 37.856 52.7792 38.092 52.8112 38.268C52.8512 38.444 52.9152 38.608 53.0032 38.76L53.0992 38.88L53.0032 39H51.2632L51.1912 38.796L51.3592 38.76C51.4872 38.728 51.5712 38.68 51.6112 38.616C51.6512 38.544 51.6712 38.408 51.6712 38.208V35.868C51.6712 35.716 51.6192 35.64 51.5152 35.64H51.1432L51.0952 35.508C51.2472 35.372 51.4352 35.26 51.6592 35.172C51.8912 35.084 52.1192 35.04 52.3432 35.04C52.4472 35.04 52.5312 35.064 52.5952 35.112C52.6592 35.16 52.6912 35.224 52.6912 35.304V36.18H52.7272C52.8952 35.404 53.2392 35.016 53.7592 35.016ZM59.4158 38.64C59.1358 38.952 58.7878 39.108 58.3718 39.108C58.1158 39.108 57.9118 39.052 57.7598 38.94C57.6158 38.828 57.5038 38.64 57.4238 38.376L57.0518 37.32C57.0038 37.184 56.9398 37.08 56.8598 37.008C56.7878 36.936 56.6878 36.884 56.5598 36.852V37.752C56.5598 38 56.5758 38.196 56.6078 38.34C56.6478 38.484 56.7118 38.624 56.7998 38.76L56.8958 38.88L56.7998 39H55.0598L54.9878 38.796L55.1558 38.76C55.2838 38.728 55.3678 38.68 55.4078 38.616C55.4478 38.544 55.4678 38.408 55.4678 38.208V33.876C55.4678 33.764 55.4158 33.708 55.3118 33.708H54.9398L54.8918 33.588C55.0438 33.444 55.2398 33.332 55.4798 33.252C55.7278 33.164 55.9718 33.12 56.2118 33.12C56.3158 33.12 56.3998 33.144 56.4638 33.192C56.5278 33.232 56.5598 33.292 56.5598 33.372V36.624L57.2798 36.096C57.4478 35.976 57.5638 35.88 57.6278 35.808C57.6918 35.736 57.7238 35.66 57.7238 35.58C57.7238 35.468 57.6758 35.372 57.5798 35.292L57.4838 35.22L57.5798 35.1H59.0318L59.1038 35.304C58.9038 35.352 58.6798 35.464 58.4318 35.64L57.0158 36.672C57.3678 36.712 57.6398 36.796 57.8318 36.924C58.0238 37.052 58.1638 37.236 58.2518 37.476L58.5878 38.436C58.6438 38.612 58.7558 38.7 58.9238 38.7C59.0438 38.7 59.1758 38.64 59.3198 38.52L59.4158 38.64Z" fill="#004078"/>
</svg>
