<svg width="1047" height="901" viewBox="0 0 1047 901" fill="none" xmlns="http://www.w3.org/2000/svg">
<rect width="1047" height="901" fill="white"/>
<path d="M536.203 44.5468C494.707 46.1626 461.187 79.646 459.57 121.063C459.51 122.62 460.763 123.903 462.324 123.897L470.623 123.864C472.113 123.859 473.33 122.675 473.395 121.189C474.884 87.2208 502.303 59.8361 536.33 58.3491C537.819 58.2847 539.004 57.0674 539.01 55.5816L539.043 47.2948C539.047 45.7373 537.763 44.486 536.203 44.5468ZM521.871 106.753C517.57 111.047 517.57 118.008 521.871 122.303C526.172 126.598 533.144 126.598 537.445 122.303C541.746 118.008 541.746 111.047 537.445 106.753C533.144 102.458 526.172 102.458 521.871 106.753ZM536.36 71.9752C509.933 73.5947 488.66 94.8625 487.041 121.219C486.943 122.799 488.205 124.112 489.788 124.101L498.114 124.046C499.564 124.037 500.788 122.912 500.894 121.465C502.279 102.449 517.604 87.1868 536.604 85.8091C538.053 85.7034 539.181 84.4825 539.19 83.0331L539.245 74.7197C539.257 73.1379 537.939 71.878 536.36 71.9752V71.9752Z" fill="url(#paint0_linear_1120_574)"/>
<path d="M522.797 184.453C564.293 182.837 597.813 149.354 599.43 107.937C599.49 106.38 598.237 105.097 596.676 105.103L588.377 105.136C586.887 105.141 585.67 106.325 585.605 107.811C584.116 141.779 556.697 169.164 522.67 170.651C521.181 170.715 519.996 171.933 519.99 173.418L519.957 181.705C519.953 183.263 521.237 184.514 522.797 184.453ZM537.129 122.247C541.43 117.953 541.43 110.992 537.129 106.697C532.828 102.402 525.856 102.402 521.555 106.697C517.254 110.992 517.254 117.953 521.555 122.247C525.856 126.542 532.828 126.542 537.129 122.247ZM522.64 157.025C549.067 155.405 570.34 134.138 571.959 107.781C572.057 106.201 570.795 104.888 569.212 104.899L560.886 104.954C559.436 104.963 558.212 106.088 558.106 107.535C556.721 126.551 541.396 141.813 522.396 143.191C520.947 143.297 519.819 144.518 519.81 145.967L519.755 154.28C519.743 155.862 521.061 157.122 522.64 157.025Z" fill="url(#paint1_linear_1120_574)"/>
<path d="M404.506 229.398H401.584C401.501 228.919 401.347 228.495 401.123 228.125C400.899 227.75 400.62 227.432 400.287 227.172C399.954 226.911 399.574 226.716 399.146 226.586C398.725 226.451 398.269 226.383 397.779 226.383C396.91 226.383 396.139 226.602 395.467 227.039C394.795 227.471 394.269 228.107 393.889 228.945C393.508 229.779 393.318 230.797 393.318 232C393.318 233.224 393.508 234.255 393.889 235.094C394.274 235.927 394.8 236.557 395.467 236.984C396.139 237.406 396.907 237.617 397.771 237.617C398.251 237.617 398.699 237.555 399.115 237.43C399.537 237.299 399.915 237.109 400.248 236.859C400.587 236.609 400.87 236.302 401.1 235.937C401.334 235.573 401.495 235.156 401.584 234.687L404.506 234.703C404.396 235.464 404.16 236.177 403.795 236.844C403.436 237.51 402.964 238.099 402.381 238.609C401.798 239.115 401.115 239.51 400.334 239.797C399.553 240.078 398.686 240.219 397.732 240.219C396.326 240.219 395.071 239.893 393.967 239.242C392.863 238.591 391.993 237.651 391.357 236.422C390.722 235.193 390.404 233.719 390.404 232C390.404 230.276 390.725 228.802 391.365 227.578C392.006 226.349 392.878 225.409 393.982 224.758C395.087 224.107 396.337 223.781 397.732 223.781C398.623 223.781 399.451 223.906 400.217 224.156C400.982 224.406 401.665 224.773 402.264 225.258C402.863 225.737 403.355 226.326 403.74 227.023C404.131 227.716 404.386 228.508 404.506 229.398ZM409.863 232.969V240H407.035V224H409.801V230.039H409.941C410.223 229.362 410.658 228.828 411.246 228.437C411.84 228.042 412.595 227.844 413.512 227.844C414.345 227.844 415.072 228.018 415.691 228.367C416.311 228.716 416.79 229.227 417.129 229.898C417.473 230.57 417.645 231.391 417.645 232.359V240H414.816V232.797C414.816 231.99 414.608 231.362 414.191 230.914C413.78 230.461 413.202 230.234 412.457 230.234C411.957 230.234 411.509 230.344 411.113 230.562C410.723 230.776 410.415 231.086 410.191 231.492C409.973 231.898 409.863 232.391 409.863 232.969ZM423.98 240.242C423.22 240.242 422.535 240.107 421.926 239.836C421.322 239.56 420.842 239.154 420.488 238.617C420.139 238.081 419.965 237.419 419.965 236.633C419.965 235.956 420.09 235.396 420.34 234.953C420.59 234.51 420.931 234.156 421.363 233.891C421.796 233.625 422.283 233.424 422.824 233.289C423.371 233.148 423.936 233.047 424.52 232.984C425.223 232.911 425.793 232.846 426.23 232.789C426.668 232.727 426.986 232.633 427.184 232.508C427.387 232.378 427.488 232.177 427.488 231.906V231.859C427.488 231.271 427.314 230.815 426.965 230.492C426.616 230.169 426.113 230.008 425.457 230.008C424.764 230.008 424.215 230.159 423.809 230.461C423.408 230.763 423.137 231.12 422.996 231.531L420.355 231.156C420.564 230.427 420.908 229.818 421.387 229.328C421.866 228.833 422.452 228.464 423.145 228.219C423.837 227.969 424.603 227.844 425.441 227.844C426.02 227.844 426.595 227.911 427.168 228.047C427.741 228.182 428.264 228.406 428.738 228.719C429.212 229.026 429.592 229.445 429.879 229.977C430.171 230.508 430.316 231.172 430.316 231.969V240H427.598V238.352H427.504C427.332 238.685 427.09 238.997 426.777 239.289C426.47 239.576 426.082 239.807 425.613 239.984C425.15 240.156 424.605 240.242 423.98 240.242ZM424.715 238.164C425.283 238.164 425.775 238.052 426.191 237.828C426.608 237.599 426.928 237.297 427.152 236.922C427.382 236.547 427.496 236.138 427.496 235.695V234.281C427.408 234.354 427.257 234.422 427.043 234.484C426.835 234.547 426.6 234.602 426.34 234.648C426.079 234.695 425.822 234.737 425.566 234.773C425.311 234.81 425.09 234.841 424.902 234.867C424.48 234.924 424.103 235.018 423.77 235.148C423.436 235.279 423.173 235.461 422.98 235.695C422.788 235.924 422.691 236.221 422.691 236.586C422.691 237.107 422.882 237.5 423.262 237.766C423.642 238.031 424.126 238.164 424.715 238.164ZM424.535 226.422L422.137 222.852H424.91L426.652 226.422H424.535ZM438.395 240.234C437.223 240.234 436.207 239.977 435.348 239.461C434.488 238.945 433.822 238.224 433.348 237.297C432.879 236.37 432.645 235.286 432.645 234.047C432.645 232.807 432.879 231.721 433.348 230.789C433.822 229.857 434.488 229.133 435.348 228.617C436.207 228.102 437.223 227.844 438.395 227.844C439.566 227.844 440.582 228.102 441.441 228.617C442.301 229.133 442.965 229.857 443.434 230.789C443.908 231.721 444.145 232.807 444.145 234.047C444.145 235.286 443.908 236.37 443.434 237.297C442.965 238.224 442.301 238.945 441.441 239.461C440.582 239.977 439.566 240.234 438.395 240.234ZM438.41 237.969C439.046 237.969 439.577 237.794 440.004 237.445C440.431 237.091 440.749 236.617 440.957 236.023C441.171 235.43 441.277 234.768 441.277 234.039C441.277 233.305 441.171 232.641 440.957 232.047C440.749 231.448 440.431 230.971 440.004 230.617C439.577 230.263 439.046 230.086 438.41 230.086C437.759 230.086 437.217 230.263 436.785 230.617C436.358 230.971 436.038 231.448 435.824 232.047C435.616 232.641 435.512 233.305 435.512 234.039C435.512 234.768 435.616 235.43 435.824 236.023C436.038 236.617 436.358 237.091 436.785 237.445C437.217 237.794 437.759 237.969 438.41 237.969ZM452.002 240V228H454.705V230.039H454.846C455.096 229.352 455.51 228.815 456.088 228.43C456.666 228.039 457.356 227.844 458.158 227.844C458.971 227.844 459.656 228.042 460.213 228.437C460.775 228.828 461.171 229.362 461.4 230.039H461.525C461.791 229.372 462.239 228.841 462.869 228.445C463.505 228.044 464.257 227.844 465.127 227.844C466.231 227.844 467.132 228.193 467.83 228.891C468.528 229.589 468.877 230.607 468.877 231.945V240H466.041V232.383C466.041 231.638 465.843 231.094 465.447 230.75C465.051 230.401 464.567 230.227 463.994 230.227C463.312 230.227 462.778 230.44 462.393 230.867C462.012 231.289 461.822 231.839 461.822 232.516V240H459.049V232.266C459.049 231.646 458.861 231.151 458.486 230.781C458.117 230.411 457.632 230.227 457.033 230.227C456.627 230.227 456.257 230.331 455.924 230.539C455.59 230.742 455.325 231.031 455.127 231.406C454.929 231.776 454.83 232.208 454.83 232.703V240H452.002ZM483.809 227.383H485.629C485.629 228.247 485.504 228.974 485.254 229.562C485.009 230.146 484.59 230.586 483.996 230.883C483.402 231.18 482.582 231.328 481.535 231.328V229.906C482.233 229.906 482.741 229.818 483.059 229.641C483.376 229.458 483.579 229.18 483.668 228.805C483.757 228.43 483.803 227.956 483.809 227.383ZM479.441 234.953V228H482.277V240H479.527V237.867H479.402C479.132 238.539 478.686 239.089 478.066 239.516C477.452 239.943 476.694 240.156 475.793 240.156C475.007 240.156 474.311 239.982 473.707 239.633C473.108 239.279 472.639 238.766 472.301 238.094C471.962 237.417 471.793 236.599 471.793 235.641V228H474.621V235.203C474.626 235.964 474.835 236.568 475.246 237.016C475.663 237.464 476.21 237.687 476.887 237.687C477.303 237.687 477.707 237.586 478.098 237.383C478.493 237.18 478.816 236.878 479.066 236.477C479.322 236.07 479.447 235.562 479.441 234.953ZM476.012 226.422L473.613 222.852H476.387L478.129 226.422H476.012ZM489.527 232.969V240H486.699V228H489.402V230.039H489.543C489.819 229.367 490.259 228.833 490.863 228.437C491.473 228.042 492.225 227.844 493.121 227.844C493.949 227.844 494.671 228.021 495.285 228.375C495.905 228.729 496.384 229.242 496.723 229.914C497.066 230.586 497.236 231.401 497.23 232.359V240H494.402V232.797C494.402 231.995 494.194 231.367 493.777 230.914C493.366 230.461 492.796 230.234 492.066 230.234C491.572 230.234 491.132 230.344 490.746 230.562C490.366 230.776 490.066 231.086 489.848 231.492C489.634 231.898 489.527 232.391 489.527 232.969ZM505.324 244.75C504.309 244.75 503.436 244.612 502.707 244.336C501.978 244.065 501.392 243.701 500.949 243.242C500.507 242.784 500.199 242.276 500.027 241.719L502.574 241.102C502.689 241.336 502.855 241.568 503.074 241.797C503.293 242.031 503.587 242.224 503.957 242.375C504.332 242.531 504.803 242.609 505.371 242.609C506.173 242.609 506.837 242.414 507.363 242.023C507.889 241.638 508.152 241.003 508.152 240.117V237.844H508.012C507.866 238.135 507.652 238.435 507.371 238.742C507.095 239.049 506.728 239.307 506.27 239.516C505.816 239.724 505.246 239.828 504.559 239.828C503.637 239.828 502.801 239.612 502.051 239.18C501.306 238.742 500.712 238.091 500.27 237.227C499.832 236.357 499.613 235.268 499.613 233.961C499.613 232.643 499.832 231.531 500.27 230.625C500.712 229.714 501.309 229.023 502.059 228.555C502.809 228.081 503.645 227.844 504.566 227.844C505.27 227.844 505.848 227.964 506.301 228.203C506.759 228.437 507.124 228.721 507.395 229.055C507.665 229.383 507.871 229.693 508.012 229.984H508.168V228H510.957V240.195C510.957 241.221 510.712 242.07 510.223 242.742C509.733 243.414 509.064 243.917 508.215 244.25C507.366 244.583 506.402 244.75 505.324 244.75ZM505.348 237.609C505.947 237.609 506.457 237.464 506.879 237.172C507.301 236.88 507.621 236.461 507.84 235.914C508.059 235.367 508.168 234.711 508.168 233.945C508.168 233.19 508.059 232.529 507.84 231.961C507.626 231.393 507.309 230.953 506.887 230.641C506.47 230.323 505.957 230.164 505.348 230.164C504.717 230.164 504.191 230.328 503.77 230.656C503.348 230.984 503.03 231.435 502.816 232.008C502.603 232.576 502.496 233.221 502.496 233.945C502.496 234.68 502.603 235.323 502.816 235.875C503.035 236.422 503.355 236.849 503.777 237.156C504.204 237.458 504.728 237.609 505.348 237.609ZM519.437 240V224H522.266V229.984H522.383C522.529 229.693 522.734 229.383 523 229.055C523.266 228.721 523.625 228.437 524.078 228.203C524.531 227.964 525.109 227.844 525.813 227.844C526.74 227.844 527.576 228.081 528.32 228.555C529.07 229.023 529.664 229.719 530.102 230.641C530.544 231.557 530.766 232.682 530.766 234.016C530.766 235.333 530.549 236.453 530.117 237.375C529.685 238.297 529.096 239 528.352 239.484C527.607 239.969 526.763 240.211 525.82 240.211C525.133 240.211 524.563 240.096 524.109 239.867C523.656 239.638 523.292 239.362 523.016 239.039C522.745 238.711 522.534 238.401 522.383 238.109H522.219V240H519.437ZM522.211 234C522.211 234.776 522.32 235.456 522.539 236.039C522.763 236.622 523.083 237.078 523.5 237.406C523.922 237.729 524.432 237.891 525.031 237.891C525.656 237.891 526.18 237.724 526.602 237.391C527.023 237.052 527.341 236.591 527.555 236.008C527.773 235.419 527.883 234.75 527.883 234C527.883 233.255 527.776 232.594 527.563 232.016C527.349 231.437 527.031 230.984 526.609 230.656C526.188 230.328 525.661 230.164 525.031 230.164C524.427 230.164 523.914 230.323 523.492 230.641C523.07 230.958 522.75 231.404 522.531 231.977C522.318 232.549 522.211 233.224 522.211 234ZM536.623 240.242C535.863 240.242 535.178 240.107 534.568 239.836C533.964 239.56 533.485 239.154 533.131 238.617C532.782 238.081 532.607 237.419 532.607 236.633C532.607 235.956 532.732 235.396 532.982 234.953C533.232 234.51 533.574 234.156 534.006 233.891C534.438 233.625 534.925 233.424 535.467 233.289C536.014 233.148 536.579 233.047 537.162 232.984C537.865 232.911 538.436 232.846 538.873 232.789C539.311 232.727 539.628 232.633 539.826 232.508C540.029 232.378 540.131 232.177 540.131 231.906V231.859C540.131 231.271 539.956 230.815 539.607 230.492C539.258 230.169 538.756 230.008 538.1 230.008C537.407 230.008 536.857 230.159 536.451 230.461C536.05 230.763 535.779 231.12 535.639 231.531L532.998 231.156C533.206 230.427 533.55 229.818 534.029 229.328C534.508 228.833 535.094 228.464 535.787 228.219C536.48 227.969 537.245 227.844 538.084 227.844C538.662 227.844 539.238 227.911 539.811 228.047C540.383 228.182 540.907 228.406 541.381 228.719C541.855 229.026 542.235 229.445 542.521 229.977C542.813 230.508 542.959 231.172 542.959 231.969V240H540.24V238.352H540.146C539.975 238.685 539.732 238.997 539.42 239.289C539.113 239.576 538.725 239.807 538.256 239.984C537.792 240.156 537.248 240.242 536.623 240.242ZM537.357 238.164C537.925 238.164 538.417 238.052 538.834 237.828C539.251 237.599 539.571 237.297 539.795 236.922C540.024 236.547 540.139 236.138 540.139 235.695V234.281C540.05 234.354 539.899 234.422 539.686 234.484C539.477 234.547 539.243 234.602 538.982 234.648C538.722 234.695 538.464 234.737 538.209 234.773C537.954 234.81 537.732 234.841 537.545 234.867C537.123 234.924 536.745 235.018 536.412 235.148C536.079 235.279 535.816 235.461 535.623 235.695C535.43 235.924 535.334 236.221 535.334 236.586C535.334 237.107 535.524 237.5 535.904 237.766C536.285 238.031 536.769 238.164 537.357 238.164ZM538.1 244.32C537.646 244.32 537.258 244.169 536.936 243.867C536.618 243.565 536.459 243.203 536.459 242.781C536.459 242.359 536.618 241.997 536.936 241.695C537.258 241.393 537.644 241.242 538.092 241.242C538.545 241.242 538.93 241.393 539.248 241.695C539.571 241.997 539.732 242.359 539.732 242.781C539.732 243.203 539.571 243.565 539.248 243.867C538.93 244.169 538.548 244.32 538.1 244.32ZM548.631 232.969V240H545.803V228H548.506V230.039H548.646C548.923 229.367 549.363 228.833 549.967 228.437C550.576 228.042 551.329 227.844 552.225 227.844C553.053 227.844 553.774 228.021 554.389 228.375C555.008 228.729 555.488 229.242 555.826 229.914C556.17 230.586 556.339 231.401 556.334 232.359V240H553.506V232.797C553.506 231.995 553.298 231.367 552.881 230.914C552.469 230.461 551.899 230.234 551.17 230.234C550.675 230.234 550.235 230.344 549.85 230.562C549.469 230.776 549.17 231.086 548.951 231.492C548.738 231.898 548.631 232.391 548.631 232.969ZM569.119 240.211C568.176 240.211 567.333 239.969 566.588 239.484C565.843 239 565.255 238.297 564.822 237.375C564.39 236.453 564.174 235.333 564.174 234.016C564.174 232.682 564.393 231.557 564.83 230.641C565.273 229.719 565.869 229.023 566.619 228.555C567.369 228.081 568.205 227.844 569.127 227.844C569.83 227.844 570.408 227.964 570.861 228.203C571.314 228.437 571.674 228.721 571.939 229.055C572.205 229.383 572.411 229.693 572.557 229.984H572.674V224H575.51V240H572.729V238.109H572.557C572.411 238.401 572.2 238.711 571.924 239.039C571.648 239.362 571.283 239.638 570.83 239.867C570.377 240.096 569.807 240.211 569.119 240.211ZM569.908 237.891C570.507 237.891 571.018 237.729 571.439 237.406C571.861 237.078 572.182 236.622 572.4 236.039C572.619 235.456 572.729 234.776 572.729 234C572.729 233.224 572.619 232.549 572.4 231.977C572.187 231.404 571.869 230.958 571.447 230.641C571.031 230.323 570.518 230.164 569.908 230.164C569.278 230.164 568.752 230.328 568.33 230.656C567.908 230.984 567.59 231.437 567.377 232.016C567.163 232.594 567.057 233.255 567.057 234C567.057 234.75 567.163 235.419 567.377 236.008C567.596 236.591 567.916 237.052 568.338 237.391C568.765 237.724 569.288 237.891 569.908 237.891ZM569.502 227.102V225.312H576.986V227.102H569.502ZM583.836 240.234C582.633 240.234 581.594 239.984 580.719 239.484C579.849 238.979 579.18 238.266 578.711 237.344C578.242 236.417 578.008 235.326 578.008 234.07C578.008 232.836 578.242 231.753 578.711 230.82C579.185 229.883 579.846 229.154 580.695 228.633C581.544 228.107 582.542 227.844 583.688 227.844C584.427 227.844 585.125 227.964 585.781 228.203C586.443 228.437 587.026 228.802 587.531 229.297C588.042 229.792 588.443 230.422 588.734 231.187C589.026 231.948 589.172 232.854 589.172 233.906V234.773H579.336V232.867H586.461C586.456 232.326 586.339 231.844 586.109 231.422C585.88 230.995 585.56 230.659 585.148 230.414C584.742 230.169 584.268 230.047 583.727 230.047C583.148 230.047 582.641 230.187 582.203 230.469C581.766 230.745 581.424 231.109 581.18 231.562C580.94 232.01 580.818 232.503 580.813 233.039V234.703C580.813 235.401 580.94 236 581.195 236.5C581.451 236.995 581.807 237.375 582.266 237.641C582.724 237.901 583.26 238.031 583.875 238.031C584.286 238.031 584.659 237.974 584.992 237.859C585.326 237.74 585.615 237.565 585.859 237.336C586.104 237.107 586.289 236.823 586.414 236.484L589.055 236.781C588.888 237.479 588.57 238.089 588.102 238.609C587.638 239.125 587.044 239.526 586.32 239.812C585.596 240.094 584.768 240.234 583.836 240.234ZM579.547 226.625L582.711 224.055H584.477L587.656 226.625H585.305L583.609 225.187L581.906 226.625H579.547ZM586.82 225.062L588.555 222.18H591.039L588.625 225.062H586.82ZM594.393 232.969V240H591.564V228H594.268V230.039H594.408C594.684 229.367 595.124 228.833 595.729 228.437C596.338 228.042 597.09 227.844 597.986 227.844C598.814 227.844 599.536 228.021 600.15 228.375C600.77 228.729 601.249 229.242 601.588 229.914C601.932 230.586 602.101 231.401 602.096 232.359V240H599.268V232.797C599.268 231.995 599.059 231.367 598.643 230.914C598.231 230.461 597.661 230.234 596.932 230.234C596.437 230.234 595.997 230.344 595.611 230.562C595.231 230.776 594.932 231.086 594.713 231.492C594.499 231.898 594.393 232.391 594.393 232.969ZM621.146 228L616.873 240H613.748L609.475 228H612.49L615.248 236.914H615.373L618.139 228H621.146ZM633.008 227.234H634.898C634.898 228.505 634.602 229.505 634.008 230.234C633.419 230.958 632.44 231.32 631.07 231.32V229.992C631.612 229.992 632.021 229.88 632.297 229.656C632.578 229.432 632.766 229.115 632.859 228.703C632.958 228.286 633.008 227.797 633.008 227.234ZM627.93 240.234C626.758 240.234 625.742 239.977 624.883 239.461C624.023 238.945 623.357 238.224 622.883 237.297C622.414 236.37 622.18 235.286 622.18 234.047C622.18 232.807 622.414 231.721 622.883 230.789C623.357 229.857 624.023 229.133 624.883 228.617C625.742 228.102 626.758 227.844 627.93 227.844C629.102 227.844 630.117 228.102 630.977 228.617C631.836 229.133 632.5 229.857 632.969 230.789C633.443 231.721 633.68 232.807 633.68 234.047C633.68 235.286 633.443 236.37 632.969 237.297C632.5 238.224 631.836 238.945 630.977 239.461C630.117 239.977 629.102 240.234 627.93 240.234ZM627.945 237.969C628.581 237.969 629.112 237.794 629.539 237.445C629.966 237.091 630.284 236.617 630.492 236.023C630.706 235.43 630.813 234.768 630.813 234.039C630.813 233.305 630.706 232.641 630.492 232.047C630.284 231.448 629.966 230.971 629.539 230.617C629.112 230.263 628.581 230.086 627.945 230.086C627.294 230.086 626.753 230.263 626.32 230.617C625.893 230.971 625.573 231.448 625.359 232.047C625.151 232.641 625.047 233.305 625.047 234.039C625.047 234.768 625.151 235.43 625.359 236.023C625.573 236.617 625.893 237.091 626.32 237.445C626.753 237.794 627.294 237.969 627.945 237.969ZM626.844 226.422L628.594 222.852H631.359L628.961 226.422H626.844ZM636.359 240V228H639.188V240H636.359ZM637.781 226.297C637.333 226.297 636.948 226.148 636.625 225.852C636.302 225.549 636.141 225.187 636.141 224.766C636.141 224.339 636.302 223.977 636.625 223.68C636.948 223.378 637.333 223.227 637.781 223.227C638.234 223.227 638.62 223.378 638.938 223.68C639.26 223.977 639.422 224.339 639.422 224.766C639.422 225.187 639.26 225.549 638.938 225.852C638.62 226.148 638.234 226.297 637.781 226.297Z" fill="black"/>
<path d="M337.031 262.545H344.447L354.379 286.787H354.771L364.703 262.545H372.119V296H366.304V273.016H365.994L356.748 295.902H352.403L343.157 272.967H342.847V296H337.031V262.545ZM385.677 296.506C384.088 296.506 382.655 296.223 381.381 295.657C380.118 295.08 379.116 294.23 378.376 293.109C377.646 291.987 377.281 290.604 377.281 288.96C377.281 287.544 377.543 286.373 378.065 285.447C378.588 284.522 379.301 283.781 380.205 283.226C381.109 282.67 382.127 282.251 383.26 281.968C384.403 281.674 385.585 281.462 386.805 281.331C388.275 281.179 389.467 281.042 390.382 280.923C391.297 280.792 391.961 280.596 392.375 280.335C392.8 280.062 393.012 279.643 393.012 279.077V278.979C393.012 277.748 392.647 276.795 391.918 276.12C391.188 275.445 390.137 275.107 388.765 275.107C387.316 275.107 386.168 275.423 385.318 276.055C384.48 276.686 383.913 277.432 383.619 278.293L378.098 277.509C378.534 275.984 379.252 274.71 380.254 273.686C381.256 272.652 382.481 271.878 383.93 271.366C385.378 270.844 386.979 270.582 388.732 270.582C389.941 270.582 391.144 270.724 392.342 271.007C393.54 271.29 394.635 271.759 395.626 272.412C396.617 273.054 397.412 273.931 398.011 275.042C398.62 276.153 398.925 277.541 398.925 279.207V296H393.241V292.553H393.045C392.685 293.25 392.179 293.904 391.525 294.513C390.883 295.112 390.072 295.597 389.092 295.967C388.122 296.327 386.984 296.506 385.677 296.506ZM387.213 292.161C388.4 292.161 389.429 291.927 390.3 291.459C391.172 290.98 391.841 290.348 392.31 289.564C392.789 288.78 393.028 287.925 393.028 286.999V284.043C392.843 284.195 392.527 284.337 392.081 284.467C391.645 284.598 391.155 284.712 390.611 284.81C390.066 284.908 389.527 284.996 388.994 285.072C388.46 285.148 387.997 285.213 387.605 285.268C386.723 285.388 385.933 285.584 385.236 285.856C384.539 286.128 383.989 286.509 383.587 286.999C383.184 287.478 382.982 288.099 382.982 288.862C382.982 289.951 383.38 290.773 384.175 291.328C384.97 291.884 385.982 292.161 387.213 292.161ZM388.765 305.033C387.817 305.033 387.006 304.718 386.331 304.086C385.667 303.454 385.334 302.697 385.334 301.815C385.334 300.933 385.667 300.176 386.331 299.545C387.006 298.913 387.812 298.597 388.748 298.597C389.696 298.597 390.502 298.913 391.166 299.545C391.841 300.176 392.179 300.933 392.179 301.815C392.179 302.697 391.841 303.454 391.166 304.086C390.502 304.718 389.701 305.033 388.765 305.033ZM410.785 281.298V296H404.871V270.909H410.523V275.173H410.817C411.395 273.768 412.315 272.652 413.578 271.824C414.852 270.996 416.426 270.582 418.299 270.582C420.03 270.582 421.539 270.953 422.824 271.693C424.12 272.434 425.122 273.506 425.829 274.911C426.548 276.316 426.902 278.02 426.891 280.024V296H420.978V280.939C420.978 279.262 420.542 277.95 419.671 277.002C418.811 276.055 417.618 275.581 416.094 275.581C415.059 275.581 414.139 275.81 413.333 276.267C412.538 276.714 411.912 277.362 411.454 278.211C411.008 279.06 410.785 280.089 410.785 281.298ZM443.815 305.932C441.691 305.932 439.867 305.643 438.342 305.066C436.818 304.5 435.592 303.737 434.667 302.779C433.741 301.821 433.099 300.759 432.739 299.594L438.065 298.303C438.304 298.793 438.653 299.278 439.11 299.757C439.567 300.247 440.183 300.65 440.956 300.966C441.74 301.293 442.726 301.456 443.913 301.456C445.59 301.456 446.978 301.048 448.078 300.231C449.178 299.425 449.728 298.096 449.728 296.245V291.491H449.434C449.129 292.101 448.682 292.728 448.094 293.37C447.517 294.013 446.749 294.552 445.791 294.987C444.844 295.423 443.651 295.641 442.214 295.641C440.286 295.641 438.538 295.189 436.97 294.285C435.413 293.37 434.171 292.009 433.246 290.201C432.331 288.382 431.873 286.106 431.873 283.373C431.873 280.618 432.331 278.293 433.246 276.398C434.171 274.492 435.418 273.049 436.986 272.069C438.555 271.078 440.302 270.582 442.23 270.582C443.7 270.582 444.909 270.833 445.856 271.334C446.815 271.824 447.577 272.417 448.143 273.114C448.71 273.8 449.14 274.448 449.434 275.058H449.761V270.909H455.592V296.408C455.592 298.554 455.08 300.329 454.057 301.734C453.033 303.138 451.634 304.189 449.859 304.886C448.083 305.583 446.069 305.932 443.815 305.932ZM443.864 291.001C445.116 291.001 446.183 290.696 447.065 290.087C447.947 289.477 448.617 288.6 449.074 287.457C449.532 286.313 449.761 284.941 449.761 283.34C449.761 281.761 449.532 280.378 449.074 279.191C448.628 278.004 447.964 277.084 447.082 276.43C446.21 275.766 445.138 275.434 443.864 275.434C442.546 275.434 441.446 275.777 440.564 276.463C439.682 277.149 439.017 278.091 438.571 279.289C438.124 280.476 437.901 281.826 437.901 283.34C437.901 284.876 438.124 286.221 438.571 287.375C439.028 288.518 439.698 289.411 440.58 290.054C441.473 290.686 442.568 291.001 443.864 291.001ZM477.898 270.909L482.962 280.171L488.108 270.909H494.364L486.801 283.455L494.495 296H488.271L482.962 286.967L477.702 296H471.429L479.074 283.455L471.625 270.909H477.898ZM506.068 296.506C504.478 296.506 503.046 296.223 501.772 295.657C500.509 295.08 499.507 294.23 498.766 293.109C498.037 291.987 497.672 290.604 497.672 288.96C497.672 287.544 497.933 286.373 498.456 285.447C498.979 284.522 499.692 283.781 500.596 283.226C501.5 282.67 502.518 282.251 503.65 281.968C504.794 281.674 505.976 281.462 507.195 281.331C508.665 281.179 509.858 281.042 510.773 280.923C511.687 280.792 512.352 280.596 512.766 280.335C513.19 280.062 513.403 279.643 513.403 279.077V278.979C513.403 277.748 513.038 276.795 512.308 276.12C511.579 275.445 510.528 275.107 509.155 275.107C507.707 275.107 506.558 275.423 505.709 276.055C504.87 276.686 504.304 277.432 504.01 278.293L498.489 277.509C498.924 275.984 499.643 274.71 500.645 273.686C501.647 272.652 502.872 271.878 504.32 271.366C505.769 270.844 507.369 270.582 509.123 270.582C510.332 270.582 511.535 270.724 512.733 271.007C513.931 271.29 515.025 271.759 516.016 272.412C517.007 273.054 517.802 273.931 518.401 275.042C519.011 276.153 519.316 277.541 519.316 279.207V296H513.631V292.553H513.435C513.076 293.25 512.57 293.904 511.916 294.513C511.274 295.112 510.462 295.597 509.482 295.967C508.513 296.327 507.375 296.506 506.068 296.506ZM507.604 292.161C508.791 292.161 509.82 291.927 510.691 291.459C511.562 290.98 512.232 290.348 512.7 289.564C513.179 288.78 513.419 287.925 513.419 286.999V284.043C513.234 284.195 512.918 284.337 512.472 284.467C512.036 284.598 511.546 284.712 511.001 284.81C510.457 284.908 509.918 284.996 509.384 285.072C508.851 285.148 508.388 285.213 507.996 285.268C507.114 285.388 506.324 285.584 505.627 285.856C504.93 286.128 504.38 286.509 503.977 286.999C503.574 287.478 503.373 288.099 503.373 288.862C503.373 289.951 503.77 290.773 504.565 291.328C505.36 291.884 506.373 292.161 507.604 292.161ZM504.582 267.854L501.004 267.773C501.004 265.834 501.505 264.315 502.507 263.215C503.509 262.115 504.745 261.565 506.215 261.565C506.923 261.565 507.538 261.685 508.061 261.925C508.584 262.153 509.063 262.42 509.498 262.725C509.945 263.03 510.381 263.302 510.805 263.542C511.23 263.771 511.698 263.885 512.21 263.885C512.831 263.885 513.321 263.651 513.68 263.183C514.051 262.714 514.241 262.115 514.252 261.386L517.764 261.533C517.753 263.482 517.247 264.996 516.245 266.074C515.243 267.141 514.012 267.68 512.553 267.691C511.769 267.702 511.11 267.588 510.577 267.348C510.043 267.108 509.575 266.836 509.172 266.531C508.78 266.226 508.382 265.96 507.979 265.731C507.576 265.491 507.103 265.371 506.558 265.371C505.981 265.371 505.507 265.6 505.137 266.058C504.767 266.515 504.582 267.114 504.582 267.854ZM542.585 281.298V296H536.672V262.545H542.455V275.173H542.749C543.337 273.757 544.246 272.641 545.477 271.824C546.718 270.996 548.297 270.582 550.214 270.582C551.956 270.582 553.476 270.947 554.772 271.677C556.068 272.406 557.069 273.474 557.777 274.879C558.496 276.283 558.855 277.999 558.855 280.024V296H552.942V280.939C552.942 279.251 552.506 277.939 551.635 277.002C550.775 276.055 549.566 275.581 548.009 275.581C546.963 275.581 546.027 275.81 545.199 276.267C544.382 276.714 543.74 277.362 543.272 278.211C542.814 279.06 542.585 280.089 542.585 281.298ZM575.828 296.49C573.377 296.49 571.254 295.951 569.457 294.873C567.66 293.795 566.266 292.286 565.275 290.348C564.295 288.41 563.805 286.144 563.805 283.553C563.805 280.961 564.295 278.69 565.275 276.741C566.266 274.791 567.66 273.278 569.457 272.2C571.254 271.121 573.377 270.582 575.828 270.582C578.278 270.582 580.402 271.121 582.198 272.2C583.995 273.278 585.384 274.791 586.364 276.741C587.355 278.69 587.85 280.961 587.85 283.553C587.85 286.144 587.355 288.41 586.364 290.348C585.384 292.286 583.995 293.795 582.198 294.873C580.402 295.951 578.278 296.49 575.828 296.49ZM575.86 291.753C577.189 291.753 578.3 291.388 579.193 290.658C580.086 289.918 580.75 288.927 581.186 287.685C581.632 286.444 581.855 285.061 581.855 283.536C581.855 282.001 581.632 280.612 581.186 279.371C580.75 278.118 580.086 277.122 579.193 276.381C578.3 275.641 577.189 275.271 575.86 275.271C574.499 275.271 573.367 275.641 572.463 276.381C571.57 277.122 570.9 278.118 570.453 279.371C570.018 280.612 569.8 282.001 569.8 283.536C569.8 285.061 570.018 286.444 570.453 287.685C570.9 288.927 571.57 289.918 572.463 290.658C573.367 291.388 574.499 291.753 575.86 291.753ZM579.144 267.903L575.828 263.722L572.512 267.903H567.333V267.675L573.524 260.618H578.147L584.322 267.675V267.903H579.144ZM575.844 305.033C574.897 305.033 574.085 304.718 573.41 304.086C572.746 303.454 572.414 302.697 572.414 301.815C572.414 300.933 572.746 300.176 573.41 299.545C574.085 298.913 574.891 298.597 575.828 298.597C576.775 298.597 577.581 298.913 578.245 299.545C578.92 300.176 579.258 300.933 579.258 301.815C579.258 302.697 578.92 303.454 578.245 304.086C577.581 304.718 576.781 305.033 575.844 305.033ZM592.869 296V270.909H598.783V296H592.869ZM595.842 267.348C594.906 267.348 594.1 267.038 593.425 266.417C592.75 265.785 592.412 265.028 592.412 264.146C592.412 263.253 592.75 262.496 593.425 261.876C594.1 261.244 594.906 260.928 595.842 260.928C596.79 260.928 597.596 261.244 598.26 261.876C598.935 262.496 599.273 263.253 599.273 264.146C599.273 265.028 598.935 265.785 598.26 266.417C597.596 267.038 596.79 267.348 595.842 267.348ZM616.535 296V262.545H622.595V290.92H637.33V296H616.535ZM669.923 273.833H663.813C663.639 272.831 663.318 271.944 662.85 271.17C662.381 270.386 661.799 269.722 661.102 269.178C660.405 268.633 659.61 268.225 658.717 267.952C657.835 267.669 656.882 267.528 655.858 267.528C654.039 267.528 652.428 267.985 651.023 268.9C649.618 269.804 648.518 271.132 647.723 272.886C646.928 274.628 646.531 276.757 646.531 279.273C646.531 281.832 646.928 283.988 647.723 285.741C648.529 287.484 649.629 288.802 651.023 289.695C652.428 290.577 654.034 291.018 655.842 291.018C656.844 291.018 657.78 290.887 658.651 290.626C659.533 290.353 660.323 289.956 661.02 289.433C661.728 288.911 662.321 288.268 662.801 287.506C663.291 286.743 663.628 285.872 663.813 284.892L669.923 284.925C669.694 286.515 669.198 288.007 668.436 289.401C667.685 290.795 666.699 292.025 665.479 293.092C664.26 294.149 662.833 294.976 661.2 295.575C659.566 296.163 657.753 296.457 655.76 296.457C652.82 296.457 650.195 295.777 647.886 294.415C645.578 293.054 643.759 291.089 642.43 288.518C641.102 285.948 640.438 282.866 640.438 279.273C640.438 275.668 641.107 272.586 642.447 270.027C643.786 267.457 645.61 265.491 647.919 264.13C650.228 262.769 652.841 262.088 655.76 262.088C657.622 262.088 659.354 262.349 660.955 262.872C662.555 263.395 663.982 264.163 665.234 265.175C666.487 266.177 667.516 267.408 668.322 268.867C669.139 270.316 669.672 271.971 669.923 273.833ZM702.965 262.545V296H697.574L681.811 273.212H681.533V296H675.473V262.545H680.896L696.643 285.349H696.937V262.545H702.965Z" fill="#47A9FF"/>
<g clip-path="url(#clip0_1120_574)">
<path d="M1030.89 757.076C1047.65 741.291 1056.29 717.645 1047.28 697.643C1034.18 717.771 1012.6 733.622 987.576 741.502C977.831 744.571 966.624 747.103 961.324 754.844C958.025 759.661 957.785 765.693 959.271 771.147C960.757 776.601 963.817 781.619 966.846 786.567L966.864 787.966C990.582 781.93 1014.12 772.86 1030.89 757.076Z" fill="#F2F2F2"/>
<path d="M1046.78 697.749C1043.95 715.168 1034.71 731.915 1020.57 744.54C1017.5 747.396 1014.02 749.771 1010.24 751.586C1006.35 753.309 1002.11 754.093 997.863 753.874C993.862 753.746 989.787 753.213 985.82 753.933C983.875 754.276 982.018 755.007 980.362 756.083C978.705 757.159 977.283 758.559 976.179 760.198C973.55 764.067 972.676 768.527 971.997 772.914C971.242 777.785 970.547 782.855 967.341 787.045C966.953 787.552 967.882 788.046 968.27 787.539C973.848 780.249 971.981 770.933 975.745 763.071C977.501 759.403 980.54 756.172 985.083 755.064C989.055 754.095 993.258 754.642 997.308 754.801C1001.46 755.065 1005.62 754.436 1009.5 752.956C1013.37 751.317 1016.95 749.063 1020.11 746.281C1027.01 740.381 1032.91 733.398 1037.57 725.605C1042.74 717.067 1046.24 707.619 1047.87 697.769C1047.97 697.167 1046.88 697.151 1046.78 697.749V697.749Z" fill="white"/>
<path d="M1025.41 740.647C1028.29 742.432 1031.65 743.275 1035.03 743.06C1038.41 742.844 1041.64 741.579 1044.27 739.442C1044.77 739.013 1044.02 738.321 1043.53 738.751C1041.08 740.744 1038.08 741.921 1034.93 742.117C1031.78 742.312 1028.65 741.516 1025.98 739.84C1025.42 739.478 1024.85 740.287 1025.41 740.647V740.647Z" fill="white"/>
<path d="M999.882 754.171C999.322 751.128 999.413 748.001 1000.15 744.996C1000.88 741.99 1002.25 739.175 1004.15 736.735C1004.53 736.226 1003.6 735.732 1003.22 736.24C1001.25 738.783 999.834 741.716 999.076 744.844C998.318 747.973 998.232 751.227 998.823 754.391C998.939 754.993 999.998 754.769 999.882 754.171Z" fill="white"/>
<path d="M1041.36 716.813C1040.17 716.389 1039.11 715.668 1038.28 714.719C1037.45 713.77 1036.88 712.625 1036.61 711.391C1036.5 710.788 1035.44 711.012 1035.55 711.611C1035.85 712.973 1036.49 714.237 1037.4 715.287C1038.32 716.337 1039.49 717.139 1040.79 717.62C1040.92 717.682 1041.06 717.7 1041.2 717.672C1041.33 717.644 1041.45 717.57 1041.54 717.464C1041.58 717.41 1041.6 717.35 1041.61 717.287C1041.62 717.223 1041.62 717.158 1041.6 717.096C1041.59 717.034 1041.56 716.977 1041.52 716.928C1041.47 716.879 1041.42 716.839 1041.36 716.813V716.813Z" fill="white"/>
<path d="M967.803 674.9C967.858 675.279 967.913 675.657 967.961 676.04C968.667 681.119 968.897 686.253 968.647 691.374C968.635 691.77 968.616 692.172 968.591 692.566C967.802 705.027 964.407 717.183 958.626 728.249C956.274 732.766 953.558 737.085 950.505 741.161C946.252 746.85 941.119 752.723 939.328 759.113C939.134 759.775 938.986 760.45 938.886 761.133L964.898 787.876C964.992 787.911 965.08 787.951 965.174 787.987L966.157 789.096C966.333 788.893 966.51 788.679 966.686 788.477C966.789 788.359 966.886 788.236 966.988 788.119C967.055 788.039 967.121 787.958 967.186 787.889C967.209 787.863 967.231 787.836 967.246 787.814C967.311 787.746 967.364 787.675 967.422 787.612C968.417 786.42 969.405 785.22 970.385 784.012C970.392 784.007 970.392 784.007 970.393 783.996C977.832 774.775 984.45 764.934 989.139 754.532C989.28 754.219 989.428 753.901 989.557 753.576C991.629 748.913 993.268 744.07 994.455 739.107C995.088 736.413 995.565 733.684 995.883 730.934C996.685 723.837 996.198 716.653 994.445 709.729C990.942 695.856 982.374 683.111 968.843 675.475C968.497 675.28 968.156 675.09 967.803 674.9Z" fill="#F2F2F2"/>
<path d="M967.471 675.247C977.282 690.634 981.5 708.845 978.957 726.323C978.497 730.17 977.357 733.906 975.591 737.354C973.625 740.819 970.758 743.688 967.295 745.656C964.012 747.647 960.389 749.354 957.721 752.005C956.408 753.295 955.42 754.878 954.836 756.624C954.253 758.37 954.09 760.23 954.363 762.051C954.944 766.516 957.336 770.534 959.832 774.392C962.604 778.676 965.562 783.088 965.905 788.111C965.946 788.719 967.03 788.628 966.989 788.02C966.392 779.281 958.448 772.819 956.006 764.572C954.867 760.724 955.055 756.555 957.915 753.293C960.416 750.441 964.15 748.678 967.494 746.687C970.912 744.799 973.817 742.102 975.954 738.832C977.913 735.483 979.217 731.792 979.796 727.954C981.216 719.453 981.087 710.764 979.414 702.308C977.512 692.485 973.758 683.113 968.355 674.694C968.016 674.162 967.134 674.719 967.471 675.247V675.247Z" fill="white"/>
<path d="M980.129 720.679C987.253 720.614 993.332 715.969 994.351 709.85C994.451 709.247 993.378 709.084 993.277 709.687C992.323 715.42 986.684 719.676 980.024 719.737C979.323 719.743 979.432 720.686 980.129 720.679V720.679Z" fill="white"/>
<path d="M969.113 744.836C966.648 742.872 964.609 740.427 963.118 737.65C961.627 734.874 960.716 731.823 960.439 728.683C960.395 728.074 959.311 728.166 959.355 728.774C959.65 732.041 960.605 735.214 962.164 738.101C963.722 740.988 965.85 743.528 968.42 745.567C968.93 745.986 969.62 745.254 969.113 744.836V744.836Z" fill="white"/>
<path d="M976.353 693.303C975.036 693.57 973.677 693.543 972.372 693.225C971.066 692.907 969.847 692.304 968.802 691.461C968.298 691.036 967.608 691.769 968.109 692.191C969.268 693.119 970.615 693.783 972.057 694.137C973.499 694.492 975 694.529 976.457 694.245C976.746 694.189 976.975 694.006 976.947 693.729C976.921 693.595 976.845 693.477 976.735 693.398C976.624 693.318 976.487 693.285 976.353 693.303V693.303Z" fill="white"/>
<path d="M907.527 787.171C875.151 809.315 842.961 814.935 816.887 802.996C783.427 787.675 763.158 745.491 761.278 687.262L763.26 687.448C765.114 744.866 784.904 786.372 817.554 801.322C842.929 812.942 874.424 807.357 906.237 785.598L907.527 787.171Z" fill="#F2F2F2"/>
<path d="M1107.6 412.218C1104.41 447.359 1095.33 484.414 1081.09 520.167C1063.47 564.38 1039.4 603.323 1011.48 632.785L1009.94 631.434C1037.72 602.113 1061.68 563.342 1079.22 519.312C1095.07 479.523 1104.5 438.116 1106.5 399.586L1108.48 399.918C1108.27 403.987 1107.98 408.087 1107.6 412.218Z" fill="#F2F2F2"/>
<path d="M1021.6 362.275L1019.67 362.486C1011.09 328.752 994.456 305.381 971.567 294.9C942.47 281.577 906.49 290.523 870.256 320.093C833.837 349.813 801.596 396.758 779.474 452.282L777.607 451.427C799.826 395.66 832.232 348.488 868.855 318.603C905.662 288.567 942.376 279.554 972.234 293.226C995.779 304.008 1012.85 327.884 1021.6 362.275Z" fill="#F2F2F2"/>
<path d="M1128.39 655.967C1089.18 718.375 1041.6 762.966 994.432 781.525L993.478 779.775C1040.32 761.344 1087.62 716.982 1126.65 654.859L1128.39 655.967Z" fill="#F2F2F2"/>
<path d="M906.575 830.923C874.199 853.068 842.009 858.687 815.936 846.748C782.475 831.427 762.207 789.244 760.326 731.015L762.308 731.201C764.162 788.619 783.952 830.125 816.602 845.075C841.977 856.694 873.472 851.11 905.285 829.351L906.575 830.923Z" fill="#F2F2F2"/>
<path d="M1106.65 455.971C1103.46 491.112 1094.38 528.167 1080.13 563.919C1062.52 608.133 1038.45 647.075 1010.53 676.537L1008.98 675.186C1036.77 645.866 1060.73 607.095 1078.27 563.064C1094.12 523.275 1103.55 481.868 1105.55 443.339L1107.53 443.67C1107.32 447.74 1107.03 451.84 1106.65 455.971Z" fill="#F2F2F2"/>
<path d="M1103.16 408.455L1101.23 408.666C1092.65 374.932 1076.02 351.561 1053.13 341.08C1024.03 327.757 988.054 336.704 951.82 366.273C915.401 395.993 883.16 442.938 861.038 498.462L859.171 497.607C881.39 441.84 913.796 394.669 950.419 364.783C987.225 334.747 1023.94 325.734 1053.8 339.407C1077.34 350.188 1094.41 374.065 1103.16 408.455Z" fill="#F2F2F2"/>
<path d="M1125.82 715.096C1086.61 777.504 1039.03 822.095 991.862 840.654L990.908 838.904C1037.75 820.473 1085.05 776.111 1124.08 713.988L1125.82 715.096Z" fill="#F2F2F2"/>
<path d="M905.764 517.111C910.354 510.076 917.847 504.547 926.193 504.079C934.539 503.612 944.568 510.722 948.687 518.038C956.222 531.419 952.952 544.286 942.575 553.593C941.166 553.115 936.245 551.67 934.813 551.209L933.904 549.568L932.783 550.565C919.959 551.845 907.57 550.42 897.918 540.86C899.118 532.542 901.174 524.147 905.764 517.111Z" fill="#2F2E41"/>
<path d="M940.15 611.037L938.634 625.103L939.526 643.549L898.685 638.695L894.847 611.037L899.736 611.085L940.15 611.037Z" fill="#FFB6B6"/>
<path d="M923.381 550.25C932.747 550.25 940.34 542.655 940.34 533.285C940.34 523.915 932.747 516.32 923.381 516.32C914.014 516.32 906.422 523.915 906.422 533.285C906.422 542.655 914.014 550.25 923.381 550.25Z" fill="#FFB7B7"/>
<path d="M904.589 564.807L914.294 558.982L933.703 557.041L950.858 565.779L950.686 592.476L939.803 620.164L894.191 614.339L892.458 604.573C892.458 604.573 879.842 587.622 893.428 577.913L904.589 564.807Z" fill="#47A9FF"/>
<path d="M917.04 507.52C920.715 506.489 924.599 506.465 928.286 507.45C931.973 508.435 935.328 510.393 938 513.119C940.672 515.845 942.563 519.239 943.474 522.947C944.386 526.654 944.286 530.538 943.183 534.193C932.854 535.018 922.645 534.053 914.597 526.743L913.881 520.472L910.944 525.719C907.982 524.886 905.016 524.047 902.045 523.203C902.953 519.505 904.817 516.11 907.448 513.358C910.08 510.606 913.387 508.593 917.04 507.52V507.52Z" fill="#2F2E41"/>
<path d="M846.342 485.536C845.882 486.517 845.643 487.587 845.641 488.67C845.639 489.753 845.875 490.824 846.331 491.807C846.788 492.789 847.454 493.659 848.283 494.356C849.112 495.053 850.084 495.56 851.13 495.841L882.727 555.481L895.481 545.634L860.412 490.106C860.766 488.317 860.453 486.459 859.53 484.886C858.608 483.313 857.14 482.133 855.406 481.569C853.672 481.006 851.791 481.099 850.121 481.83C848.45 482.561 847.106 483.879 846.342 485.536H846.342Z" fill="#FFB6B6"/>
<path d="M898.173 575.634C898.173 575.634 895.245 578.231 891.081 571.058C887.747 565.316 871.123 539.602 868.769 530.688C867.478 530.724 866.211 530.33 865.168 529.567C864.126 528.804 863.367 527.715 863.01 526.473L880.868 519.54C884.75 521.481 883.673 524.172 882.688 525.565L889.339 535.544L911.461 560.379L900.323 573.793L898.173 575.634Z" fill="#47A9FF"/>
<path d="M1200.04 884H673.963C673.708 884 673.463 883.898 673.282 883.718C673.101 883.537 673 883.292 673 883.036C673 882.781 673.101 882.536 673.282 882.355C673.463 882.174 673.708 882.073 673.963 882.073H1200.04C1200.29 882.073 1200.54 882.174 1200.72 882.355C1200.9 882.536 1201 882.781 1201 883.036C1201 883.292 1200.9 883.537 1200.72 883.718C1200.54 883.898 1200.29 884 1200.04 884Z" fill="#CCCCCC"/>
<path d="M1074.09 346.223C1064.6 336.861 1051.92 331.694 1039.2 328.388C1024.81 324.646 1009.92 322.441 995.22 320.327C979.896 318.123 964.511 316.423 949.065 315.227C933.64 314.037 918.187 313.356 902.706 313.183C888.911 313.029 875.024 313.024 861.297 314.555C848.367 315.997 835.469 318.891 823.813 324.832C813.437 330.006 804.719 337.988 798.651 347.87C793.073 357.069 789.756 368.096 790.909 378.909C791.45 384.234 793.107 389.384 795.773 394.025C798.897 399.153 802.879 403.706 807.544 407.485C817.175 415.621 828.691 421.568 836.976 431.238C839.164 433.771 841.075 436.53 842.677 439.47C843.881 441.699 845.234 443.617 847.472 444.917C849.469 446.058 851.759 446.581 854.054 446.421C856.348 446.261 858.544 445.425 860.364 444.019C862.945 441.992 864.798 438.868 866.796 436.297L873.76 427.331C874.264 426.527 874.847 425.776 875.501 425.09C875.971 424.702 875.196 425.044 875.35 424.947C875.434 424.894 875.583 424.923 875.675 424.885C876.139 424.752 876.614 424.664 877.095 424.621C882.18 423.686 887.277 422.811 892.384 421.997C911.241 418.953 930.22 416.442 949.279 415.089C959.102 414.304 968.962 414.069 978.812 414.384C991.548 414.906 1004.11 417.436 1016.8 418.527C1030.46 419.702 1044.81 419.54 1057.68 414.27C1067.99 410.052 1077.56 402.955 1083.14 393.154C1085.78 388.518 1087.35 383.345 1087.72 378.019C1088.41 365.939 1082.53 354.547 1074.09 346.223Z" fill="#E6E6E6"/>
<path d="M895.112 323.084C892.683 323.084 890.255 323.097 887.828 323.123C864.526 323.37 840.444 325.255 822.17 337.27C805.949 347.935 794.581 371.692 804.202 388.729C808.619 396.552 816.624 402.246 825.098 408.274C828.419 410.638 831.855 413.081 835.147 415.713C842.338 421.462 849.11 429.177 853.005 437.852L870.116 415.824L873.349 415.205C876.459 414.609 949.969 400.665 989.118 405.192C992.719 405.608 996.358 406.088 999.878 406.551C1015.78 408.644 1030.8 410.62 1045.23 407.702C1060.28 404.655 1076.81 393.023 1077.8 377.468C1078.47 366.819 1071.54 355.137 1060.15 347.706C1048.64 340.193 1034.27 337.091 1020.54 334.558C979.168 326.931 937.184 323.091 895.112 323.084V323.084Z" fill="white"/>
<path d="M1027.9 356.979H862.66C861.706 356.979 860.792 356.6 860.118 355.926C859.443 355.251 859.065 354.336 859.065 353.382C859.065 352.428 859.443 351.514 860.118 350.839C860.792 350.165 861.706 349.786 862.66 349.786H1027.9C1028.86 349.786 1029.77 350.165 1030.45 350.839C1031.12 351.514 1031.5 352.428 1031.5 353.382C1031.5 354.336 1031.12 355.251 1030.45 355.926C1029.77 356.6 1028.86 356.979 1027.9 356.979V356.979Z" fill="#47A9FF"/>
<path d="M1027.9 379.056H862.66C861.706 379.056 860.792 378.677 860.118 378.002C859.443 377.328 859.065 376.413 859.065 375.459C859.065 374.505 859.443 373.59 860.118 372.916C860.792 372.241 861.706 371.862 862.66 371.862H1027.9C1028.86 371.862 1029.77 372.241 1030.45 372.916C1031.12 373.59 1031.5 374.505 1031.5 375.459C1031.5 376.413 1031.12 377.328 1030.45 378.002C1029.77 378.677 1028.86 379.056 1027.9 379.056V379.056Z" fill="#47A9FF"/>
<path d="M881.917 401.132H862.66C861.706 401.132 860.792 400.753 860.118 400.078C859.443 399.404 859.065 398.489 859.065 397.535C859.065 396.581 859.443 395.666 860.118 394.992C860.792 394.317 861.706 393.938 862.66 393.938H881.917C882.87 393.938 883.785 394.317 884.459 394.992C885.133 395.666 885.512 396.581 885.512 397.535C885.512 398.489 885.133 399.404 884.459 400.078C883.785 400.753 882.87 401.132 881.917 401.132Z" fill="#47A9FF"/>
<path d="M852.06 487.403C860.5 487.403 867.342 480.558 867.342 472.116C867.342 463.673 860.5 456.829 852.06 456.829C843.621 456.829 836.779 463.673 836.779 472.116C836.779 480.558 843.621 487.403 852.06 487.403Z" fill="#E6E6E6"/>
<path d="M807.599 660.1C809.79 656.804 808.493 652.086 804.701 649.562C800.909 647.038 796.058 647.664 793.866 650.96C791.674 654.256 792.971 658.973 796.763 661.497C800.556 664.021 805.407 663.395 807.599 660.1Z" fill="#F2F2F2"/>
<path d="M1011.7 540.096C1013.9 536.8 1012.6 532.082 1008.81 529.558C1005.01 527.034 1000.16 527.66 997.971 530.956C995.779 534.252 997.076 538.969 1000.87 541.493C1004.66 544.017 1009.51 543.392 1011.7 540.096Z" fill="#E6E6E6"/>
<path d="M961.334 866.423H952.404L948.155 831.969H961.334V866.423Z" fill="#FFB6B6"/>
<path d="M966.046 881.9H959.643L958.5 875.852L955.573 881.9H938.589C937.775 881.9 936.982 881.639 936.326 881.157C935.671 880.674 935.186 879.994 934.944 879.217C934.702 878.439 934.714 877.605 934.98 876.835C935.245 876.065 935.75 875.4 936.42 874.938L949.982 865.567V859.453L964.248 860.305L966.046 881.9Z" fill="#2F2E41"/>
<path d="M911.177 866.423H902.247L897.999 831.969H911.177V866.423Z" fill="#FFB6B6"/>
<path d="M915.89 881.9H909.486L908.343 875.852L905.416 881.9H888.432C887.618 881.9 886.825 881.639 886.17 881.157C885.514 880.674 885.03 879.994 884.787 879.217C884.545 878.439 884.557 877.605 884.823 876.835C885.088 876.065 885.593 875.4 886.263 874.938L899.825 865.567V859.453L914.091 860.305L915.89 881.9Z" fill="#2F2E41"/>
<path d="M965.186 836.712H965.089L963.372 780.691C964.483 778.546 965.047 776.16 965.014 773.745C964.98 771.33 964.35 768.961 963.18 766.848L962.934 766.403L963.571 763.447C964.39 759.649 964.014 755.691 962.496 752.115L960.894 699.858C966.617 662.752 939.341 638.552 939.341 638.552H898.481L889.709 668.702C883.91 725.223 884.962 780.3 894.164 833.66L893.913 833.787C893.01 834.099 892.623 835.351 893.048 836.583C893.473 837.816 894.55 838.562 895.453 838.25L917.032 837.499C917.936 837.187 918.323 835.935 917.898 834.703C917.473 833.471 916.396 832.725 915.492 833.036L914.025 833.779L917.154 779.721L916.807 769.847L917.522 758.645L920.83 708.259L933.35 770.22L946.138 837.335C945.785 837.655 945.538 838.074 945.428 838.537C945.318 839 945.352 839.485 945.524 839.929C945.695 840.373 945.998 840.755 946.391 841.023C946.784 841.291 947.249 841.434 947.725 841.433H965.186C965.812 841.433 966.412 841.184 966.855 840.741C967.297 840.299 967.546 839.698 967.546 839.072C967.546 838.446 967.297 837.846 966.855 837.403C966.412 836.96 965.812 836.712 965.186 836.712H965.186Z" fill="#2F2E41"/>
<path d="M946.131 680.072C947.053 679.504 947.839 678.741 948.435 677.835C949.03 676.93 949.42 675.906 949.576 674.834C949.733 673.762 949.653 672.668 949.341 671.631C949.03 670.593 948.495 669.636 947.773 668.828L954.032 601.62L937.969 602.861L936.868 668.534C935.591 669.836 934.835 671.561 934.745 673.383C934.654 675.205 935.235 676.997 936.376 678.419C937.518 679.841 939.142 680.795 940.94 681.1C942.737 681.404 944.584 681.039 946.131 680.072V680.072Z" fill="#FFB6B6"/>
<path d="M950.263 566.047C950.263 566.047 954.136 565.48 953.687 573.763C953.328 580.394 955.035 621.265 952.118 630.011C953.218 630.689 954.062 631.713 954.515 632.923C954.969 634.133 955.008 635.459 954.625 636.693L935.89 632.699C933.707 628.946 934.16 625.093 935.746 624.468L935.653 612.475L931.512 572.941L947.457 566.407L950.263 566.047Z" fill="#47A9FF"/>
</g>
<g clip-path="url(#clip1_1120_574)">
<path d="M81.3597 690.722H526.669C528.56 690.722 530.373 691.473 531.71 692.809C533.047 694.145 533.798 695.957 533.798 697.846C533.798 699.735 533.047 701.547 531.71 702.883C530.373 704.219 528.56 704.97 526.669 704.97H514.056V875.392C514.056 877.281 513.304 879.093 511.967 880.429C510.63 881.765 508.817 882.516 506.926 882.516C505.035 882.516 503.222 881.765 501.885 880.429C500.548 879.093 499.797 877.281 499.797 875.392L499.688 704.97H142.283L109.329 875.392C109.329 877.281 108.578 879.093 107.24 880.429C105.903 881.765 104.09 882.516 102.199 882.516C100.308 882.516 98.4951 881.765 97.1581 880.429C95.8211 879.093 95.0699 877.281 95.0699 875.392L92.9957 704.97H81.3597C79.4689 704.97 77.6555 704.219 76.3185 702.883C74.9814 701.547 74.2303 699.735 74.2303 697.846C74.2303 695.957 74.9814 694.145 76.3185 692.809C77.6555 691.473 79.4689 690.722 81.3597 690.722V690.722Z" fill="#CCCCCC"/>
<path d="M449.48 658.98V689.147H525.12C527.102 689.216 529.078 688.894 530.936 688.2C532.794 687.505 534.497 686.452 535.947 685.1C537.398 683.748 538.568 682.124 539.39 680.32C540.212 678.517 540.671 676.569 540.74 674.588C540.809 672.607 540.487 670.632 539.792 668.776C539.097 666.92 538.043 665.218 536.69 663.769C535.337 662.319 533.712 661.151 531.907 660.329C530.102 659.507 528.152 659.049 526.17 658.98C525.82 658.968 525.47 658.968 525.12 658.98L449.48 658.98Z" fill="#F2F2F2"/>
<path d="M447.623 688.915C447.623 689.223 447.745 689.518 447.963 689.735C448.18 689.953 448.476 690.075 448.784 690.075H526.467C530.684 690.072 534.728 688.396 537.709 685.416C540.689 682.435 542.364 678.393 542.364 674.179C542.364 669.966 540.689 665.924 537.709 662.943C534.728 659.963 530.684 658.287 526.467 658.284H448.784C448.631 658.283 448.48 658.313 448.338 658.371C448.197 658.429 448.069 658.515 447.961 658.622C447.853 658.73 447.767 658.858 447.708 658.999C447.65 659.14 447.619 659.291 447.619 659.444C447.619 659.597 447.65 659.748 447.708 659.889C447.767 660.03 447.853 660.158 447.961 660.265C448.069 660.373 448.197 660.459 448.338 660.517C448.48 660.575 448.631 660.605 448.784 660.604H526.467C530.067 660.61 533.517 662.042 536.06 664.588C538.604 667.133 540.032 670.583 540.032 674.179C540.032 677.776 538.604 681.226 536.06 683.771C533.517 686.317 530.067 687.749 526.467 687.755H448.784C448.476 687.755 448.18 687.877 447.963 688.095C447.745 688.312 447.623 688.607 447.623 688.915V688.915Z" fill="#47A9FF"/>
<path d="M449.48 665.942H530.763C530.825 665.942 530.884 665.918 530.928 665.875C530.971 665.832 530.996 665.773 530.997 665.712C530.997 665.65 530.974 665.591 530.931 665.547C530.888 665.503 530.829 665.478 530.768 665.478H449.48C449.419 665.478 449.361 665.503 449.318 665.546C449.275 665.59 449.251 665.648 449.251 665.71C449.251 665.771 449.275 665.829 449.318 665.873C449.361 665.916 449.419 665.941 449.48 665.942Z" fill="#CCCCCC"/>
<path d="M449.48 671.511H530.763C530.825 671.511 530.884 671.487 530.928 671.444C530.971 671.401 530.996 671.342 530.997 671.281C530.997 671.22 530.974 671.161 530.931 671.117C530.888 671.073 530.829 671.048 530.768 671.047H449.48C449.419 671.047 449.361 671.072 449.318 671.116C449.275 671.159 449.251 671.218 449.251 671.279C449.251 671.34 449.275 671.399 449.318 671.442C449.361 671.486 449.419 671.51 449.48 671.511Z" fill="#CCCCCC"/>
<path d="M449.48 677.08H530.763C530.825 677.081 530.884 677.057 530.928 677.014C530.971 676.97 530.996 676.912 530.997 676.85C530.997 676.789 530.974 676.73 530.931 676.686C530.888 676.642 530.829 676.617 530.768 676.616H449.48C449.419 676.617 449.361 676.642 449.318 676.685C449.275 676.728 449.251 676.787 449.251 676.848C449.251 676.909 449.275 676.968 449.318 677.012C449.361 677.055 449.419 677.08 449.48 677.08Z" fill="#CCCCCC"/>
<path d="M449.48 682.649H530.763C530.825 682.649 530.884 682.625 530.928 682.582C530.971 682.539 530.996 682.481 530.997 682.419C530.997 682.358 530.974 682.299 530.931 682.255C530.888 682.211 530.829 682.186 530.768 682.185H449.48C449.419 682.186 449.361 682.21 449.318 682.254C449.275 682.297 449.251 682.356 449.251 682.417C449.251 682.478 449.275 682.537 449.318 682.58C449.361 682.624 449.419 682.649 449.48 682.649Z" fill="#CCCCCC"/>
<path d="M463.739 627.197V657.364H539.378C543.382 657.503 547.277 656.048 550.206 653.317C553.136 650.587 554.86 646.806 554.999 642.805C555.138 638.805 553.681 634.913 550.949 631.986C548.216 629.059 544.432 627.336 540.429 627.197C540.079 627.185 539.729 627.185 539.378 627.197H463.739Z" fill="#F2F2F2"/>
<path d="M461.881 657.132C461.881 657.44 462.004 657.735 462.221 657.953C462.439 658.17 462.734 658.292 463.042 658.292H540.726C544.945 658.292 548.991 656.618 551.974 653.637C554.958 650.656 556.634 646.613 556.634 642.397C556.634 638.181 554.958 634.138 551.974 631.157C548.991 628.176 544.945 626.501 540.726 626.501H463.042C462.89 626.501 462.739 626.531 462.598 626.589C462.457 626.648 462.329 626.733 462.221 626.841C462.113 626.949 462.028 627.076 461.97 627.217C461.911 627.358 461.881 627.509 461.881 627.661C461.881 627.814 461.911 627.964 461.97 628.105C462.028 628.246 462.113 628.374 462.221 628.482C462.329 628.589 462.457 628.675 462.598 628.733C462.739 628.791 462.89 628.822 463.042 628.822H540.726C544.329 628.822 547.784 630.252 550.332 632.798C552.88 635.343 554.311 638.796 554.311 642.397C554.311 645.997 552.88 649.45 550.332 651.996C547.784 654.542 544.329 655.972 540.726 655.972H463.042C462.734 655.972 462.439 656.094 462.221 656.312C462.004 656.529 461.881 656.825 461.881 657.132Z" fill="#3F3D56"/>
<path d="M463.739 634.158H545.022C545.084 634.159 545.143 634.135 545.186 634.092C545.23 634.049 545.255 633.99 545.256 633.929C545.256 633.867 545.232 633.808 545.189 633.764C545.146 633.72 545.088 633.695 545.026 633.694H463.739C463.678 633.695 463.62 633.72 463.577 633.763C463.533 633.807 463.509 633.865 463.509 633.926C463.509 633.988 463.533 634.046 463.577 634.09C463.62 634.133 463.678 634.158 463.739 634.158V634.158Z" fill="#CCCCCC"/>
<path d="M463.739 639.728H545.022C545.084 639.728 545.143 639.704 545.186 639.661C545.23 639.618 545.255 639.559 545.256 639.498C545.256 639.436 545.232 639.377 545.189 639.333C545.146 639.29 545.088 639.264 545.026 639.264H463.739C463.678 639.264 463.62 639.289 463.577 639.332C463.533 639.376 463.509 639.435 463.509 639.496C463.509 639.557 463.533 639.616 463.577 639.659C463.62 639.702 463.678 639.727 463.739 639.728Z" fill="#CCCCCC"/>
<path d="M463.739 645.297H545.022C545.084 645.297 545.143 645.273 545.186 645.23C545.23 645.187 545.255 645.129 545.256 645.067C545.256 645.006 545.232 644.947 545.189 644.903C545.146 644.859 545.088 644.834 545.026 644.833H463.739C463.678 644.834 463.62 644.858 463.577 644.902C463.533 644.945 463.509 645.004 463.509 645.065C463.509 645.126 463.533 645.185 463.577 645.228C463.62 645.272 463.678 645.296 463.739 645.297Z" fill="#CCCCCC"/>
<path d="M463.739 650.866H545.022C545.084 650.867 545.143 650.843 545.186 650.8C545.23 650.757 545.255 650.698 545.256 650.637C545.256 650.575 545.232 650.516 545.189 650.472C545.146 650.428 545.088 650.403 545.026 650.402H463.739C463.678 650.403 463.62 650.428 463.577 650.471C463.533 650.515 463.509 650.573 463.509 650.634C463.509 650.696 463.533 650.754 463.577 650.798C463.62 650.841 463.678 650.866 463.739 650.866V650.866Z" fill="#CCCCCC"/>
<path d="M375.748 797.471V771.168C375.748 770.005 376.21 768.89 377.033 768.068C377.856 767.246 378.971 766.784 380.135 766.784H479.946C481.109 766.784 482.225 767.246 483.048 768.068C483.871 768.89 484.333 770.005 484.333 771.168V797.471H375.748Z" fill="#CCCCCC"/>
<path d="M375.748 807.334H484.333V841.309H375.748V807.334Z" fill="#CCCCCC"/>
<path d="M484.333 851.173V877.476C484.333 878.639 483.871 879.754 483.048 880.576C482.225 881.398 481.109 881.86 479.946 881.86H380.135C378.971 881.86 377.856 881.398 377.033 880.576C376.21 879.754 375.748 878.639 375.748 877.476V851.173H484.333Z" fill="#CCCCCC"/>
<path d="M430.589 786.511C428.771 786.511 427.298 785.039 427.298 783.223C427.298 781.408 428.771 779.936 430.589 779.936C432.406 779.936 433.879 781.408 433.879 783.223C433.879 785.039 432.406 786.511 430.589 786.511Z" fill="white"/>
<path d="M430.589 830.35C428.771 830.35 427.298 828.878 427.298 827.062C427.298 825.246 428.771 823.774 430.589 823.774C432.406 823.774 433.879 825.246 433.879 827.062C433.879 828.878 432.406 830.35 430.589 830.35Z" fill="white"/>
<path d="M430.412 873.26C428.595 873.26 427.122 871.788 427.122 869.972C427.122 868.156 428.595 866.684 430.412 866.684C432.23 866.684 433.703 868.156 433.703 869.972C433.703 871.788 432.23 873.26 430.412 873.26Z" fill="white"/>
<path d="M388.059 736.793V766.96H463.698C467.699 767.097 471.592 765.64 474.519 762.91C477.446 760.18 479.169 756.4 479.308 752.402C479.447 748.403 477.992 744.513 475.262 741.586C472.532 738.659 468.751 736.935 464.749 736.793C464.399 736.781 464.048 736.781 463.698 736.793H388.059Z" fill="#F2F2F2"/>
<path d="M386.201 766.728C386.201 767.036 386.323 767.331 386.541 767.548C386.758 767.766 387.054 767.888 387.362 767.888H465.045C469.263 767.889 473.309 766.216 476.293 763.237C479.277 760.258 480.954 756.217 480.957 752.002C480.96 747.787 479.287 743.744 476.306 740.761C473.326 737.779 469.282 736.101 465.064 736.097H387.362C387.209 736.096 387.058 736.126 386.916 736.184C386.775 736.242 386.647 736.328 386.539 736.435C386.43 736.543 386.345 736.671 386.286 736.812C386.228 736.953 386.197 737.104 386.197 737.257C386.197 737.41 386.228 737.561 386.286 737.702C386.345 737.843 386.43 737.971 386.539 738.078C386.647 738.186 386.775 738.272 386.916 738.33C387.058 738.388 387.209 738.418 387.362 738.417H465.045C468.645 738.422 472.096 739.854 474.64 742.4C477.184 744.945 478.613 748.395 478.613 751.992C478.613 755.59 477.184 759.04 474.64 761.585C472.096 764.131 468.645 765.563 465.045 765.568H387.362C387.054 765.568 386.758 765.69 386.541 765.908C386.323 766.125 386.201 766.42 386.201 766.728V766.728Z" fill="#3F3D56"/>
<path d="M388.058 743.755H469.341C469.403 743.755 469.462 743.731 469.505 743.688C469.549 743.645 469.574 743.586 469.575 743.525C469.575 743.463 469.551 743.404 469.509 743.36C469.466 743.316 469.407 743.291 469.346 743.291H388.058C387.997 743.291 387.939 743.316 387.896 743.359C387.853 743.403 387.828 743.461 387.828 743.523C387.828 743.584 387.853 743.642 387.896 743.686C387.939 743.729 387.997 743.754 388.058 743.755H388.058Z" fill="#CCCCCC"/>
<path d="M388.058 749.324H469.341C469.403 749.324 469.462 749.3 469.505 749.257C469.549 749.214 469.574 749.155 469.575 749.094C469.575 749.033 469.551 748.974 469.509 748.93C469.466 748.886 469.407 748.861 469.346 748.86H388.058C387.997 748.86 387.939 748.885 387.896 748.929C387.853 748.972 387.828 749.031 387.828 749.092C387.828 749.153 387.853 749.212 387.896 749.255C387.939 749.299 387.997 749.323 388.058 749.324H388.058Z" fill="#CCCCCC"/>
<path d="M388.058 754.893H469.341C469.403 754.894 469.462 754.87 469.505 754.827C469.549 754.783 469.574 754.725 469.575 754.663C469.575 754.602 469.551 754.543 469.509 754.499C469.466 754.455 469.407 754.43 469.346 754.429H388.058C387.997 754.43 387.939 754.455 387.896 754.498C387.853 754.541 387.828 754.6 387.828 754.661C387.828 754.722 387.853 754.781 387.896 754.825C387.939 754.868 387.997 754.893 388.058 754.893H388.058Z" fill="#CCCCCC"/>
<path d="M388.058 760.463H469.341C469.403 760.463 469.462 760.439 469.505 760.396C469.549 760.353 469.574 760.294 469.575 760.233C469.575 760.171 469.551 760.112 469.509 760.068C469.466 760.024 469.407 759.999 469.346 759.999H388.058C387.997 759.999 387.939 760.024 387.896 760.067C387.853 760.111 387.828 760.169 387.828 760.231C387.828 760.292 387.853 760.35 387.896 760.394C387.939 760.437 387.997 760.462 388.058 760.463H388.058Z" fill="#CCCCCC"/>
<path d="M476.893 617.133H511.355C511.682 617.133 512.005 617.208 512.298 617.353L520.996 621.704C521.282 621.825 521.526 622.028 521.698 622.287C521.869 622.546 521.961 622.85 521.961 623.161C521.961 623.472 521.869 623.776 521.698 624.035C521.526 624.294 521.282 624.497 520.996 624.619L512.298 628.97C512.005 629.114 511.682 629.189 511.355 629.189H476.893C476.418 629.216 475.951 629.056 475.594 628.742C475.237 628.428 475.018 627.986 474.984 627.512V618.81C475.018 618.336 475.237 617.894 475.594 617.58C475.951 617.267 476.418 617.106 476.893 617.133V617.133Z" fill="#3F3D56"/>
<path d="M474.984 618.81V627.512C475.018 627.986 475.237 628.428 475.594 628.742C475.951 629.056 476.418 629.216 476.893 629.189H483.759V617.133H476.893C476.418 617.106 475.951 617.267 475.594 617.58C475.237 617.894 475.018 618.336 474.984 618.81V618.81Z" fill="#47A9FF"/>
<path d="M683.503 787.643C679.066 789.202 674.302 789.592 669.669 788.777C665.037 787.962 660.693 785.968 657.055 782.988C647.792 775.219 644.887 762.42 642.524 750.568C640.194 738.883 637.864 727.198 635.534 715.513L650.168 725.582C660.692 732.822 671.453 740.295 678.74 750.783C686.027 761.271 689.208 775.588 683.353 786.936" fill="#E6E6E6"/>
<path d="M682.252 830.084C683.734 819.304 685.257 808.385 684.218 797.489C683.295 787.812 680.34 778.361 674.325 770.611C671.132 766.505 667.247 762.988 662.845 760.216C661.697 759.492 660.64 761.31 661.783 762.031C669.401 766.842 675.293 773.945 678.61 782.318C682.273 791.628 682.862 801.778 682.23 811.668C681.848 817.649 681.039 823.591 680.224 829.526C680.16 829.794 680.2 830.077 680.336 830.317C680.473 830.557 680.695 830.736 680.959 830.818C681.227 830.891 681.514 830.854 681.756 830.717C681.999 830.579 682.177 830.352 682.252 830.084L682.252 830.084Z" fill="#F2F2F2"/>
<path d="M667.986 811.008C666.083 813.899 663.467 816.25 660.39 817.837C657.313 819.424 653.879 820.192 650.419 820.068C641.526 819.646 634.113 813.444 627.439 807.557L607.699 790.142L620.764 789.517C630.159 789.068 639.796 788.649 648.745 791.544C657.693 794.439 665.946 801.406 667.582 810.661" fill="#E6E6E6"/>
<path d="M686.438 836.282C679.309 823.677 671.04 809.669 656.265 805.191C652.156 803.951 647.848 803.506 643.573 803.882C642.226 803.998 642.562 806.073 643.907 805.957C651.074 805.363 658.226 807.254 664.161 811.312C669.872 815.196 674.318 820.596 678.081 826.322C680.387 829.83 682.451 833.486 684.517 837.138C685.177 838.305 687.106 837.462 686.438 836.282L686.438 836.282Z" fill="#F2F2F2"/>
<path d="M697.861 849.549C697.621 846.768 696.622 844.106 694.972 841.853C693.323 839.6 691.086 837.843 688.506 836.772V829.485H676.275V837.002C673.822 838.125 671.71 839.878 670.156 842.082C668.602 844.286 667.661 846.863 667.429 849.549L664.553 882.956H700.737L697.861 849.549Z" fill="#F2F2F2"/>
<path d="M281.893 690.037L285.532 688.507L288.028 670.28H321.268L323.973 688.432L327.229 690.058C327.384 690.136 327.509 690.264 327.583 690.422C327.657 690.58 327.675 690.757 327.635 690.927C327.595 691.096 327.499 691.247 327.362 691.355C327.226 691.463 327.057 691.522 326.883 691.522H282.193C282.014 691.522 281.841 691.46 281.703 691.347C281.565 691.234 281.47 691.077 281.435 690.902C281.4 690.727 281.426 690.546 281.509 690.388C281.593 690.231 281.728 690.107 281.893 690.037V690.037Z" fill="#E6E6E6"/>
<path d="M222.823 672.705H386.107C386.964 672.703 387.785 672.362 388.39 671.756C388.995 671.15 389.335 670.329 389.335 669.473V646.466H219.596V669.473C219.596 670.329 219.935 671.15 220.541 671.756C221.146 672.362 221.967 672.703 222.823 672.705V672.705Z" fill="#CCCCCC"/>
<path d="M219.425 657.339H389.484V558.897C389.483 557.864 389.071 556.873 388.34 556.143C387.609 555.412 386.618 555.001 385.584 555H223.325C222.291 555.001 221.3 555.412 220.568 556.143C219.837 556.873 219.426 557.864 219.425 558.897L219.425 657.339Z" fill="#3F3D56"/>
<path d="M229.582 650.195H379.327C380.124 650.194 380.888 649.877 381.452 649.314C382.016 648.751 382.333 647.987 382.333 647.191V565.149C382.333 564.353 382.016 563.589 381.452 563.026C380.888 562.463 380.124 562.146 379.327 562.145H229.582C228.785 562.146 228.021 562.463 227.457 563.026C226.893 563.589 226.576 564.353 226.575 565.149V647.191C226.576 647.987 226.893 648.751 227.457 649.314C228.021 649.877 228.785 650.194 229.582 650.195V650.195Z" fill="white"/>
<path d="M269.023 679.142C268.056 678.25 266.905 677.58 265.651 677.181C264.397 676.781 263.071 676.661 261.766 676.828C260.46 676.996 259.208 677.448 258.096 678.152C256.984 678.856 256.04 679.794 255.331 680.902L235.076 677.304L229.886 689.07L258.561 693.75C260.502 694.817 262.768 695.136 264.929 694.645C267.09 694.155 268.995 692.89 270.285 691.089C271.574 689.289 272.158 687.078 271.926 684.876C271.693 682.674 270.66 680.634 269.023 679.142V679.142Z" fill="#FFB6B6"/>
<path d="M250.27 694.166L229.154 693.903L226.481 693.867L183.519 693.326C183.519 693.326 171.853 682.205 161.694 670.754L163.118 660.464C164.507 650.364 169.521 641.113 177.226 634.432C191.776 644.146 200.213 663.375 200.213 663.375L226.851 669.741L229.516 670.378L246.067 674.33L250.27 694.166Z" fill="#47A9FF"/>
<path d="M142.174 757.417H181.59C181.59 759.104 224.677 760.474 224.677 760.474C225.627 761.189 226.493 762.009 227.259 762.919C229.559 765.66 230.816 769.125 230.808 772.702V775.148C230.807 779.202 229.195 783.089 226.326 785.955C223.457 788.822 219.567 790.433 215.51 790.434H142.174C138.118 790.43 134.229 788.819 131.361 785.953C128.493 783.087 126.88 779.201 126.876 775.148V772.702C126.882 768.65 128.495 764.765 131.363 761.9C134.231 759.034 138.119 757.422 142.174 757.417V757.417Z" fill="#E4E4E4"/>
<path d="M170.837 789.827H186.747V881.587H170.837V789.827Z" fill="#E4E4E4"/>
<path d="M232.029 881.029C232.029 882.746 207.92 881.693 178.18 881.693C148.44 881.693 124.332 882.747 124.332 881.029C124.332 879.311 148.44 865.69 178.18 865.69C207.92 865.69 232.029 879.311 232.029 881.029Z" fill="#E4E4E4"/>
<path d="M242.716 870.544L254.557 870.543L260.189 824.908L242.714 824.908L242.716 870.544Z" fill="#FFB6B6"/>
<path d="M239.696 882.013L277.876 882.011V881.529C277.875 877.591 276.31 873.814 273.523 871.029C270.736 868.245 266.956 866.68 263.015 866.68H263.014L239.696 866.681L239.696 882.013Z" fill="#2F2E41"/>
<path d="M277.712 870.544L289.553 870.543L295.186 824.908L277.71 824.908L277.712 870.544Z" fill="#FFB6B6"/>
<path d="M274.692 882.013L312.872 882.011V881.529C312.872 877.591 311.306 873.814 308.519 871.029C305.732 868.245 301.952 866.68 298.011 866.68H298.01L274.692 866.681L274.692 882.013Z" fill="#2F2E41"/>
<path d="M171.646 607.815C160.276 607.815 151.058 598.605 151.058 587.243C151.058 575.882 160.276 566.672 171.646 566.672C183.016 566.672 192.234 575.882 192.234 587.243C192.234 598.605 183.016 607.815 171.646 607.815Z" fill="#FFB6B6"/>
<path d="M138.325 728.192C138.325 728.192 131.417 764.691 157.7 769.339C183.983 773.987 221.924 777.253 221.924 777.253L238.961 856.683L261.851 854.641C261.851 854.641 258.807 759.026 251.32 751.545C243.834 744.065 196.517 721.666 196.517 721.666L138.325 728.192Z" fill="#2F2E41"/>
<path d="M189.658 712.896L201.153 724.418C201.153 724.418 284.153 737.777 287.355 756.932C292.189 785.852 297.899 848.741 297.899 848.741L272.944 846.871L263.158 775.383L223.231 766.308L177.804 741.571L189.658 712.896Z" fill="#2F2E41"/>
<path d="M151.835 574.964C153.867 571.132 156.449 563.496 160.551 562.08C162.829 561.325 165.184 560.824 167.572 560.586L174.544 563.265L170.749 560.316C171.488 560.272 172.226 560.236 172.964 560.209L177.669 562.016L175.262 560.146C179.648 560.101 184.175 560.557 187.573 563.224C190.47 565.499 193.34 574.114 193.804 577.766C194.301 581.26 194.127 584.816 193.293 588.244L192.101 589.376C191.685 588.421 191.371 587.425 191.167 586.403C190.74 584.495 189.919 582.696 188.758 581.122C187.597 579.548 186.12 578.233 184.422 577.26L184.357 577.224C182.359 576.1 179.934 576.152 177.643 576.234L166.761 576.626C164.142 576.72 161.323 576.885 159.282 578.526C157.984 579.737 156.964 581.213 156.291 582.855C155.277 584.9 153.295 592.616 153.295 592.616C153.295 592.616 152.174 591.159 151.636 592.243C150.774 589.415 150.25 586.495 150.075 583.544C149.904 580.58 150.51 577.622 151.835 574.964V574.964Z" fill="#2F2E41"/>
<path d="M79.8281 596.278C81.1414 596.364 82.4198 596.737 83.5731 597.37C84.7265 598.004 85.7268 598.882 86.5037 599.944C87.2805 601.006 87.815 602.224 88.0694 603.515C88.3238 604.805 88.2919 606.135 87.9761 607.412L104.532 619.615L99.5642 631.476L76.4268 613.916C74.3155 613.243 72.5244 611.821 71.3928 609.917C70.2612 608.013 69.8678 605.761 70.2871 603.587C70.7064 601.413 71.9092 599.468 73.6677 598.121C75.4261 596.774 77.6181 596.118 79.8281 596.278V596.278Z" fill="#FFB6B6"/>
<path d="M82.4927 621.19L123.996 667.247C123.996 667.247 143.844 660.899 159.193 654.016L166.089 632.852C167.691 627.943 168.374 622.781 168.105 617.624C146.826 611.966 122.076 633.018 122.076 633.018L91.0089 608.703L82.4927 621.19Z" fill="#47A9FF"/>
<path d="M179.336 731.594C186.74 729.038 194.397 726.396 202.656 725.403L203.01 725.361L202.912 725.018C194.363 695.024 196.497 675.837 200.687 647.016C201.578 640.799 200.433 634.461 197.423 628.948C194.413 623.435 189.7 619.042 183.986 616.426L183.935 616.403L160.348 614.905L160.294 614.902L143.14 619.943C140.672 620.674 138.512 622.193 136.991 624.267C135.47 626.342 134.671 628.857 134.717 631.429C134.903 640.907 134.509 651.489 134.092 662.693C133.156 687.827 132.188 713.817 137.681 730.68L137.709 730.768L137.783 730.826C142.832 734.935 149.159 737.156 155.671 737.104C163.371 737.104 171.228 734.392 179.336 731.594Z" fill="#47A9FF"/>
<path d="M8.09682 884H764.903C765.194 884 765.473 883.885 765.679 883.679C765.884 883.473 766 883.195 766 882.904C766 882.613 765.884 882.335 765.679 882.129C765.473 881.924 765.194 881.808 764.903 881.808H8.09682C7.80593 881.808 7.52693 881.924 7.32123 882.129C7.11554 882.335 7.00004 882.613 7.00004 882.904C7.00004 883.195 7.11554 883.473 7.32123 883.679C7.52693 883.885 7.80593 884 8.09682 884Z" fill="#CCCCCC"/>
</g>
<g clip-path="url(#clip2_1120_574)">
<path d="M520 490.224C604.5 490.224 673 488.309 673 485.947C673 483.585 604.5 481.67 520 481.67C435.5 481.67 367 483.585 367 485.947C367 488.309 435.5 490.224 520 490.224Z" fill="#E6E6E6"/>
<path d="M601.538 439.605C601.345 439.608 601.152 439.61 600.956 439.61C600.76 439.61 600.567 439.608 600.374 439.605C590.132 439.372 582.709 432.978 584.598 426.268L589.206 409.9L590.37 405.759L611.013 406.111L612.267 410.162L617.205 426.109C619.296 432.856 611.873 439.372 601.538 439.605Z" fill="#3F3D56"/>
<path opacity="0.2" d="M612.267 410.162C608.747 412.173 604.754 413.208 600.701 413.162C596.647 413.116 592.679 411.99 589.206 409.9L590.37 405.759L611.012 406.111L612.267 410.162Z" fill="black"/>
<path d="M611.396 426.811C612.288 423.49 615.218 418.699 623.437 412.923C637.772 402.847 629.221 395.292 628.85 394.976C628.073 394.312 628.188 393.566 629.117 393.312C629.657 393.204 630.214 393.213 630.75 393.337C631.286 393.462 631.79 393.7 632.226 394.035C632.691 394.419 643.398 403.556 627.223 414.924C612.666 425.156 615.761 431.835 615.797 431.899C616.187 432.614 615.561 433.185 614.398 433.178C613.235 433.17 611.976 432.585 611.584 431.872C611.502 431.721 610.565 429.903 611.396 426.811Z" fill="#3F3D56"/>
<path d="M591.429 441.991C591.116 441.991 590.806 441.929 590.517 441.809C590.228 441.69 589.966 441.514 589.744 441.293C589.523 441.072 589.348 440.81 589.228 440.521C589.108 440.232 589.047 439.923 589.047 439.61V429.296C589.047 428.665 589.298 428.06 589.744 427.613C590.191 427.167 590.797 426.916 591.429 426.916C592.06 426.916 592.666 427.167 593.113 427.613C593.56 428.06 593.811 428.665 593.811 429.296V439.61C593.811 439.923 593.749 440.232 593.629 440.521C593.51 440.81 593.334 441.072 593.113 441.293C592.892 441.514 592.629 441.69 592.34 441.809C592.051 441.929 591.741 441.991 591.429 441.991V441.991Z" fill="#3F3D56"/>
<path d="M593.517 417.504C593.386 417.788 593.201 418.044 592.971 418.256C592.742 418.468 592.473 418.634 592.179 418.742C591.886 418.85 591.574 418.9 591.261 418.888C590.949 418.876 590.642 418.802 590.358 418.672L580.981 414.361C580.408 414.097 579.963 413.616 579.745 413.024C579.526 412.432 579.551 411.778 579.815 411.205C580.079 410.632 580.56 410.187 581.152 409.968C581.744 409.748 582.398 409.773 582.972 410.036L592.349 414.347C592.633 414.478 592.888 414.663 593.101 414.892C593.313 415.122 593.479 415.391 593.587 415.684C593.696 415.977 593.745 416.289 593.733 416.601C593.721 416.913 593.648 417.22 593.517 417.504V417.504Z" fill="#3F3D56"/>
<path d="M608.395 417.504C608.526 417.788 608.711 418.044 608.94 418.256C609.17 418.469 609.439 418.634 609.733 418.742C610.026 418.85 610.338 418.9 610.65 418.888C610.963 418.876 611.27 418.803 611.554 418.672L620.931 414.361C621.504 414.097 621.95 413.616 622.169 413.024C622.388 412.432 622.363 411.777 622.099 411.204C621.835 410.63 621.354 410.185 620.761 409.966C620.169 409.747 619.513 409.772 618.939 410.036L609.563 414.347C609.279 414.478 609.023 414.663 608.811 414.893C608.598 415.122 608.433 415.391 608.325 415.684C608.216 415.977 608.166 416.289 608.179 416.601C608.191 416.914 608.264 417.22 608.395 417.504V417.504Z" fill="#3F3D56"/>
<path d="M610.483 441.991C610.796 441.991 611.106 441.929 611.395 441.809C611.684 441.69 611.946 441.514 612.167 441.293C612.389 441.072 612.564 440.81 612.684 440.521C612.803 440.232 612.865 439.923 612.865 439.61V429.296C612.865 428.665 612.614 428.06 612.167 427.613C611.721 427.167 611.115 426.916 610.483 426.916C609.851 426.916 609.246 427.167 608.799 427.613C608.352 428.06 608.101 428.665 608.101 429.296V439.61C608.101 439.923 608.163 440.232 608.283 440.521C608.402 440.81 608.578 441.072 608.799 441.293C609.02 441.514 609.283 441.69 609.572 441.809C609.861 441.929 610.17 441.991 610.483 441.991V441.991Z" fill="#3F3D56"/>
<path d="M620.437 375.217C620.643 374.958 620.792 374.658 620.873 374.338C620.955 374.017 620.967 373.683 620.91 373.357L619.614 365.736L618.317 358.115C618.247 357.704 618.07 357.318 617.804 356.997C617.537 356.675 617.191 356.43 616.799 356.285C616.408 356.14 615.985 356.1 615.573 356.17C615.161 356.24 614.775 356.417 614.453 356.683L608.497 361.615L604.909 364.587C602.516 364.162 600.07 364.125 597.665 364.478L594.208 361.615L588.252 356.683C587.931 356.417 587.545 356.24 587.133 356.17C586.721 356.1 586.298 356.14 585.907 356.285C585.515 356.43 585.169 356.675 584.902 356.997C584.636 357.318 584.459 357.704 584.389 358.115L583.092 365.736L581.796 373.357C581.727 373.757 581.762 374.169 581.9 374.552C579.678 377.955 578.41 381.891 578.226 385.95C578.043 390.01 578.951 394.044 580.857 397.633C582.762 401.223 585.596 404.237 589.062 406.361C592.528 408.486 596.501 409.643 600.566 409.713C604.632 409.783 608.642 408.764 612.18 406.76C615.717 404.757 618.653 401.843 620.681 398.321C622.71 394.799 623.757 390.799 623.714 386.736C623.671 382.673 622.54 378.695 620.437 375.217V375.217Z" fill="#3F3D56"/>
<path d="M587.655 359.806C587.514 359.806 587.374 359.831 587.242 359.881C587.047 359.951 586.875 360.073 586.743 360.232C586.611 360.391 586.523 360.583 586.49 360.787L584.918 370.029C584.883 370.232 584.903 370.442 584.975 370.635C585.047 370.829 585.169 371 585.328 371.132C585.487 371.264 585.678 371.352 585.882 371.386C586.086 371.421 586.295 371.401 586.489 371.33L595.284 368.069C595.478 367.997 595.649 367.876 595.781 367.717C595.913 367.558 596.001 367.367 596.035 367.163C596.07 366.959 596.051 366.75 595.979 366.556C595.907 366.363 595.785 366.191 595.626 366.059L595.626 366.059L588.403 360.078C588.193 359.903 587.929 359.806 587.655 359.806V359.806Z" fill="#E6E6E6"/>
<path d="M615.05 359.806C614.777 359.806 614.513 359.903 614.303 360.078L607.08 366.059C606.921 366.191 606.799 366.363 606.727 366.556C606.655 366.75 606.636 366.959 606.67 367.163C606.705 367.367 606.793 367.558 606.925 367.717C607.057 367.876 607.228 367.997 607.422 368.069L616.217 371.33C616.411 371.401 616.62 371.421 616.824 371.386C617.028 371.352 617.219 371.264 617.378 371.132C617.537 371 617.659 370.829 617.731 370.635C617.803 370.442 617.823 370.232 617.788 370.029L616.216 360.787C616.182 360.583 616.095 360.391 615.963 360.232C615.831 360.073 615.659 359.951 615.464 359.881C615.332 359.831 615.192 359.806 615.05 359.806Z" fill="#E6E6E6"/>
<path d="M600.956 393.329C602.71 393.329 604.132 391.908 604.132 390.156C604.132 388.403 602.71 386.982 600.956 386.982C599.202 386.982 597.78 388.403 597.78 390.156C597.78 391.908 599.202 393.329 600.956 393.329Z" fill="#E6E6E6"/>
<path d="M600.956 389.362C602.125 389.362 603.073 389.007 603.073 388.569C603.073 388.131 602.125 387.775 600.956 387.775C599.787 387.775 598.839 388.131 598.839 388.569C598.839 389.007 599.787 389.362 600.956 389.362Z" fill="#3F3D56"/>
<path d="M599.368 392.007H602.279V395.577C602.279 395.768 602.242 395.957 602.168 396.134C602.095 396.31 601.988 396.471 601.853 396.606C601.718 396.741 601.557 396.848 601.381 396.921C601.204 396.994 601.015 397.032 600.824 397.032V397.032C600.438 397.032 600.067 396.878 599.794 396.606C599.522 396.333 599.368 395.963 599.368 395.577V392.007H599.368Z" fill="#FF6584"/>
<path d="M601.133 356.009C600.98 356.326 600.832 356.645 600.692 356.972C599.05 360.799 598.496 365.006 599.092 369.128C599.39 368.696 599.703 368.246 600.021 367.791C599.339 363.835 599.723 359.768 601.133 356.009V356.009Z" fill="#3F3D56"/>
<path d="M603.514 358.918C603.362 359.235 603.214 359.555 603.074 359.881C601.432 363.709 600.878 367.915 601.473 372.037C601.771 371.605 602.085 371.155 602.403 370.7C601.721 366.744 602.105 362.678 603.514 358.918V358.918Z" fill="#3F3D56"/>
<path d="M610.858 416.031L610.522 411.766L610.187 407.502C610.169 407.272 610.09 407.05 609.959 406.86C609.828 406.67 609.65 406.517 609.441 406.418C609.233 406.318 609.001 406.276 608.771 406.294C608.541 406.312 608.319 406.39 608.129 406.521L604.601 408.943L602.025 410.712C601.86 410.52 601.656 410.365 601.426 410.259C601.195 410.153 600.945 410.098 600.691 410.098C600.438 410.098 600.187 410.153 599.957 410.259C599.727 410.365 599.522 410.52 599.358 410.712L596.782 408.943L593.254 406.521C593.064 406.39 592.842 406.312 592.612 406.294C592.381 406.275 592.15 406.318 591.942 406.418C591.733 406.517 591.554 406.67 591.423 406.86C591.292 407.05 591.214 407.272 591.196 407.502L590.86 411.766L590.525 416.031C590.507 416.261 590.55 416.492 590.649 416.7C590.749 416.909 590.901 417.087 591.092 417.218C591.282 417.349 591.504 417.427 591.734 417.445C591.965 417.463 592.196 417.421 592.404 417.321L596.267 415.479L599.442 413.966C599.605 414.132 599.8 414.263 600.014 414.352C600.229 414.442 600.459 414.488 600.691 414.488C600.924 414.488 601.154 414.442 601.369 414.352C601.583 414.263 601.778 414.132 601.941 413.966L605.115 415.479L608.978 417.321C609.187 417.421 609.418 417.463 609.648 417.445C609.879 417.427 610.1 417.349 610.291 417.218C610.481 417.087 610.634 416.909 610.734 416.7C610.833 416.492 610.876 416.261 610.858 416.031V416.031Z" fill="#47A9FF"/>
<path d="M596.722 387.511C597.16 387.511 597.516 387.155 597.516 386.717C597.516 386.279 597.16 385.924 596.722 385.924C596.283 385.924 595.928 386.279 595.928 386.717C595.928 387.155 596.283 387.511 596.722 387.511Z" fill="#E6E6E6"/>
<path d="M605.19 387.511C605.629 387.511 605.984 387.155 605.984 386.717C605.984 386.279 605.629 385.924 605.19 385.924C604.752 385.924 604.396 386.279 604.396 386.717C604.396 387.155 604.752 387.511 605.19 387.511Z" fill="#E6E6E6"/>
<path d="M447.34 432.596C447.533 432.598 447.726 432.601 447.922 432.601C448.118 432.601 448.311 432.598 448.504 432.596C458.746 432.363 466.169 425.968 464.28 419.259L459.672 402.891L458.508 398.75L437.865 399.101L436.611 403.153L431.673 419.1C429.582 425.847 437.005 432.363 447.34 432.596Z" fill="#3F3D56"/>
<path opacity="0.2" d="M436.611 403.153C440.131 405.163 444.123 406.199 448.177 406.153C452.231 406.107 456.199 404.981 459.672 402.891L458.508 398.75L437.866 399.101L436.611 403.153Z" fill="black"/>
<path d="M434.975 417.862C432.747 415.241 428.047 412.164 418.145 410.458C400.875 407.481 405.369 396.996 405.568 396.552C405.986 395.619 405.563 394.995 404.614 395.162C404.08 395.295 403.58 395.541 403.149 395.883C402.718 396.225 402.365 396.656 402.113 397.145C401.858 397.69 396.093 410.528 415.58 413.886C433.118 416.909 433.181 424.269 433.176 424.343C433.13 425.155 433.94 425.404 434.988 424.9C436.035 424.396 436.924 423.328 436.972 422.516C436.981 422.344 437.05 420.301 434.975 417.862Z" fill="#3F3D56"/>
<path d="M457.449 434.981C457.762 434.981 458.072 434.92 458.361 434.8C458.65 434.681 458.912 434.505 459.133 434.284C459.355 434.063 459.53 433.801 459.65 433.512C459.769 433.223 459.831 432.914 459.831 432.601V422.287C459.83 421.656 459.579 421.052 459.132 420.606C458.686 420.16 458.08 419.91 457.449 419.91C456.818 419.91 456.213 420.16 455.766 420.606C455.319 421.052 455.068 421.656 455.067 422.287V432.601C455.067 432.914 455.129 433.223 455.249 433.512C455.368 433.801 455.544 434.063 455.765 434.284C455.986 434.505 456.249 434.681 456.538 434.8C456.827 434.92 457.136 434.981 457.449 434.981V434.981Z" fill="#3F3D56"/>
<path d="M455.361 410.495C455.492 410.779 455.677 411.034 455.907 411.247C456.136 411.459 456.405 411.624 456.699 411.732C456.992 411.841 457.304 411.89 457.616 411.878C457.929 411.866 458.236 411.793 458.52 411.662L467.897 407.351C468.181 407.221 468.437 407.036 468.65 406.806C468.863 406.577 469.028 406.308 469.137 406.015C469.246 405.721 469.295 405.409 469.283 405.097C469.272 404.784 469.198 404.477 469.067 404.193C468.936 403.909 468.751 403.653 468.521 403.441C468.291 403.228 468.022 403.063 467.728 402.955C467.435 402.847 467.123 402.797 466.81 402.809C466.497 402.822 466.19 402.896 465.906 403.027L456.529 407.338C456.245 407.468 455.989 407.654 455.777 407.883C455.564 408.112 455.399 408.381 455.291 408.674C455.182 408.968 455.133 409.279 455.145 409.592C455.157 409.904 455.23 410.211 455.361 410.495V410.495Z" fill="#3F3D56"/>
<path d="M440.483 410.495C440.352 410.779 440.167 411.034 439.938 411.247C439.708 411.459 439.439 411.624 439.145 411.732C438.852 411.841 438.54 411.89 438.228 411.878C437.915 411.866 437.608 411.793 437.324 411.662L427.947 407.351C427.663 407.221 427.407 407.036 427.194 406.806C426.981 406.577 426.816 406.308 426.707 406.015C426.598 405.721 426.549 405.409 426.561 405.097C426.573 404.784 426.646 404.477 426.777 404.193C426.908 403.909 427.093 403.653 427.323 403.441C427.553 403.228 427.822 403.063 428.116 402.955C428.409 402.847 428.721 402.797 429.034 402.809C429.347 402.822 429.654 402.896 429.938 403.027L439.315 407.338C439.599 407.468 439.855 407.654 440.067 407.883C440.28 408.112 440.445 408.381 440.553 408.674C440.662 408.968 440.712 409.279 440.699 409.592C440.687 409.904 440.614 410.211 440.483 410.495Z" fill="#3F3D56"/>
<path d="M438.395 434.981C438.082 434.981 437.772 434.92 437.483 434.8C437.194 434.681 436.932 434.505 436.711 434.284C436.489 434.063 436.314 433.801 436.194 433.512C436.075 433.223 436.013 432.914 436.013 432.601V422.287C436.014 421.656 436.265 421.052 436.712 420.606C437.158 420.16 437.764 419.91 438.395 419.91C439.026 419.91 439.631 420.16 440.078 420.606C440.525 421.052 440.776 421.656 440.777 422.287V432.601C440.777 432.914 440.715 433.223 440.595 433.512C440.476 433.801 440.3 434.063 440.079 434.284C439.858 434.505 439.595 434.681 439.306 434.8C439.017 434.92 438.708 434.981 438.395 434.981V434.981Z" fill="#3F3D56"/>
<path d="M466.978 367.542C467.115 367.159 467.151 366.748 467.082 366.347L465.786 358.726L464.489 351.106C464.419 350.694 464.242 350.308 463.976 349.987C463.709 349.666 463.363 349.42 462.971 349.275C462.58 349.13 462.157 349.09 461.745 349.16C461.333 349.23 460.947 349.407 460.626 349.673L454.669 354.606L451.213 357.468C448.808 357.115 446.362 357.152 443.969 357.577L440.381 354.606L434.425 349.673C434.103 349.407 433.717 349.23 433.305 349.16C432.893 349.09 432.47 349.13 432.079 349.275C431.687 349.42 431.341 349.666 431.074 349.987C430.808 350.308 430.631 350.694 430.561 351.106L429.264 358.726L427.968 366.347C427.911 366.673 427.923 367.007 428.005 367.328C428.086 367.649 428.235 367.948 428.441 368.207C426.336 371.686 425.202 375.665 425.157 379.73C425.113 383.796 426.16 387.799 428.188 391.322C430.217 394.846 433.154 397.762 436.693 399.767C440.232 401.772 444.244 402.793 448.312 402.723C452.38 402.652 456.354 401.494 459.822 399.368C463.29 397.242 466.124 394.226 468.03 390.634C469.935 387.043 470.843 383.006 470.658 378.945C470.473 374.884 469.203 370.946 466.978 367.542H466.978Z" fill="#3F3D56"/>
<path d="M460.475 353.069L453.252 359.05L453.252 359.05C453.093 359.182 452.971 359.353 452.899 359.547C452.828 359.741 452.808 359.95 452.843 360.154C452.877 360.357 452.965 360.548 453.097 360.707C453.229 360.866 453.4 360.988 453.594 361.06L462.389 364.32C462.583 364.392 462.792 364.412 462.996 364.377C463.2 364.343 463.391 364.255 463.55 364.123C463.71 363.991 463.831 363.82 463.903 363.626C463.975 363.432 463.995 363.223 463.96 363.019L462.388 353.778C462.355 353.574 462.267 353.382 462.135 353.223C462.003 353.063 461.831 352.942 461.636 352.871C461.504 352.822 461.364 352.797 461.223 352.796C460.949 352.797 460.685 352.893 460.475 353.069V353.069Z" fill="#E6E6E6"/>
<path d="M433.414 352.871C433.219 352.942 433.047 353.063 432.915 353.223C432.783 353.382 432.696 353.574 432.662 353.778L431.09 363.019C431.055 363.223 431.075 363.432 431.147 363.626C431.219 363.82 431.341 363.991 431.5 364.123C431.659 364.255 431.85 364.343 432.054 364.377C432.258 364.412 432.467 364.392 432.661 364.32L441.456 361.06C441.65 360.988 441.821 360.866 441.953 360.707C442.085 360.548 442.173 360.357 442.208 360.154C442.242 359.95 442.223 359.741 442.151 359.547C442.079 359.353 441.957 359.182 441.798 359.05L434.575 353.069C434.366 352.893 434.101 352.797 433.828 352.796C433.686 352.797 433.546 352.822 433.414 352.871Z" fill="#E6E6E6"/>
<path d="M447.922 386.319C449.676 386.319 451.098 384.898 451.098 383.146C451.098 381.393 449.676 379.972 447.922 379.972C446.168 379.972 444.746 381.393 444.746 383.146C444.746 384.898 446.168 386.319 447.922 386.319Z" fill="#E6E6E6"/>
<path d="M447.922 382.352C449.091 382.352 450.039 381.997 450.039 381.559C450.039 381.121 449.091 380.766 447.922 380.766C446.753 380.766 445.805 381.121 445.805 381.559C445.805 381.997 446.753 382.352 447.922 382.352Z" fill="#3F3D56"/>
<path d="M448.054 390.022C447.863 390.022 447.674 389.984 447.497 389.911C447.321 389.838 447.16 389.731 447.025 389.596C446.89 389.461 446.783 389.301 446.71 389.124C446.637 388.948 446.599 388.758 446.599 388.567V384.997H449.51V388.567C449.51 388.758 449.472 388.948 449.399 389.124C449.326 389.301 449.219 389.461 449.084 389.596C448.949 389.731 448.788 389.838 448.611 389.911C448.435 389.984 448.246 390.022 448.054 390.022V390.022Z" fill="#FF6584"/>
<path d="M447.745 349C447.898 349.316 448.046 349.636 448.186 349.962C449.828 353.79 450.382 357.997 449.786 362.119C449.488 361.687 449.175 361.237 448.857 360.781C449.539 356.825 449.155 352.759 447.745 349V349Z" fill="#3F3D56"/>
<path d="M445.364 351.909C445.516 352.226 445.664 352.545 445.804 352.872C447.446 356.699 448 360.906 447.404 365.028C447.107 364.596 446.793 364.146 446.475 363.691C447.157 359.735 446.773 355.668 445.364 351.909V351.909Z" fill="#3F3D56"/>
<path d="M438.02 362.74L438.356 358.475L438.691 354.211C438.709 353.981 438.788 353.759 438.919 353.569C439.05 353.379 439.228 353.226 439.437 353.127C439.645 353.027 439.877 352.984 440.107 353.003C440.337 353.021 440.559 353.099 440.749 353.23L444.277 355.652L446.853 357.421C447.018 357.229 447.222 357.074 447.452 356.968C447.683 356.862 447.933 356.807 448.187 356.807C448.44 356.807 448.691 356.862 448.921 356.968C449.151 357.074 449.356 357.229 449.52 357.421L452.096 355.652L455.624 353.23C455.814 353.099 456.036 353.021 456.266 353.003C456.497 352.984 456.728 353.027 456.936 353.127C457.145 353.226 457.324 353.379 457.455 353.569C457.586 353.759 457.664 353.981 457.682 354.211L458.018 358.475L458.353 362.74C458.371 362.97 458.328 363.201 458.229 363.409C458.129 363.618 457.977 363.796 457.786 363.927C457.596 364.058 457.374 364.136 457.144 364.154C456.913 364.172 456.682 364.13 456.474 364.03L452.611 362.188L449.436 360.675C449.273 360.841 449.078 360.972 448.864 361.061C448.649 361.151 448.419 361.197 448.187 361.197C447.954 361.197 447.724 361.151 447.509 361.061C447.295 360.972 447.1 360.841 446.937 360.675L443.763 362.188L439.9 364.03C439.691 364.13 439.46 364.172 439.229 364.154C438.999 364.136 438.778 364.058 438.587 363.927C438.397 363.796 438.244 363.618 438.144 363.409C438.045 363.201 438.002 362.97 438.02 362.74V362.74Z" fill="#47A9FF"/>
<path d="M451.363 379.708C451.363 380.146 451.718 379.708 452.156 379.708C452.595 379.708 452.95 380.146 452.95 379.708C452.95 379.498 452.866 379.296 452.717 379.148C452.568 378.999 452.367 378.916 452.156 378.916C451.946 378.916 451.745 378.999 451.596 379.148C451.447 379.296 451.363 379.498 451.363 379.708V379.708Z" fill="#E6E6E6"/>
<path d="M444.482 379.708C444.482 380.146 444.126 379.708 443.688 379.708C443.249 379.708 442.894 380.146 442.894 379.708C442.894 379.498 442.978 379.296 443.127 379.148C443.276 378.999 443.477 378.916 443.688 378.916C443.898 378.916 444.1 378.999 444.249 379.148C444.397 379.296 444.481 379.498 444.482 379.708V379.708Z" fill="#E6E6E6"/>
<path d="M532.567 439.612V434.569H507.334V434.884V439.612V480.273V485.316H512.38H532.567V480.273H512.38V439.612H532.567Z" fill="#3F3D56"/>
<path d="M544.868 434.569V485.316H570.101V434.569H544.868ZM565.054 480.272H549.914V439.612H565.054V480.272Z" fill="#47A9FF"/>
<path d="M474.846 480.273V434.884H469.799V480.273V485.316H474.846H495.032V480.273H474.846Z" fill="#47A9FF"/>
<path d="M458.444 439.612V434.569H433.211V434.884V439.612V457.263V462.306V480.273V485.316H438.258H458.444V480.273H438.258V462.306H458.444V457.263H438.258V439.612H458.444Z" fill="#3F3D56"/>
<path d="M655.893 439.612V434.569H630.66V434.884V439.612V457.263V462.306V480.273V485.316H635.707H655.893V480.273H635.707V462.306H655.893V457.263H635.707V439.612H655.893Z" fill="#47A9FF"/>
<path d="M416.179 434.884V476.565L402.873 463.268L402.843 463.299L402.814 463.27L389.211 476.864V434.727H384.165V485.158H389.211V483.996L402.845 470.372L416.179 483.697V485.316H421.226V434.884H416.179Z" fill="#3F3D56"/>
<path d="M613.943 434.884V436.046L600.31 449.67L586.975 436.345V434.727H581.929V485.158H586.975V443.477L600.282 456.774L600.312 456.744L600.34 456.772L613.943 443.178V485.316H618.99V434.884H613.943Z" fill="#3F3D56"/>
<path d="M482.326 403.817C484.036 403.817 485.423 402.432 485.423 400.722C485.423 399.012 484.036 397.626 482.326 397.626C480.615 397.626 479.228 399.012 479.228 400.722C479.228 402.432 480.615 403.817 482.326 403.817Z" fill="#47A9FF"/>
<path d="M405.918 438.211C407.629 438.211 409.016 436.826 409.016 435.116C409.016 433.406 407.629 432.021 405.918 432.021C404.207 432.021 402.821 433.406 402.821 435.116C402.821 436.826 404.207 438.211 405.918 438.211Z" fill="#47A9FF"/>
<path d="M467.182 507C468.893 507 470.279 505.614 470.279 503.905C470.279 502.195 468.893 500.809 467.182 500.809C465.471 500.809 464.084 502.195 464.084 503.905C464.084 505.614 465.471 507 467.182 507Z" fill="#47A9FF"/>
<path d="M544.966 413.104C546.677 413.104 548.063 411.718 548.063 410.008C548.063 408.298 546.677 406.913 544.966 406.913C543.255 406.913 541.868 408.298 541.868 410.008C541.868 411.718 543.255 413.104 544.966 413.104Z" fill="#47A9FF"/>
<path d="M636.173 504.249C637.884 504.249 639.271 502.863 639.271 501.153C639.271 499.444 637.884 498.058 636.173 498.058C634.462 498.058 633.075 499.444 633.075 501.153C633.075 502.863 634.462 504.249 636.173 504.249Z" fill="#47A9FF"/>
<path d="M639.27 423.078C640.981 423.078 642.368 421.692 642.368 419.983C642.368 418.273 640.981 416.887 639.27 416.887C637.56 416.887 636.173 418.273 636.173 419.983C636.173 421.692 637.56 423.078 639.27 423.078Z" fill="#47A9FF"/>
<path d="M600.034 478.797C601.745 478.797 603.132 477.411 603.132 475.701C603.132 473.992 601.745 472.606 600.034 472.606C598.324 472.606 596.937 473.992 596.937 475.701C596.937 477.411 598.324 478.797 600.034 478.797Z" fill="#47A9FF"/>
</g>
<defs>
<linearGradient id="paint0_linear_1120_574" x1="482.935" y1="67.8761" x2="537.362" y2="122.386" gradientUnits="userSpaceOnUse">
<stop stop-color="#54D8FD"/>
<stop offset="1" stop-color="#0080EC"/>
</linearGradient>
<linearGradient id="paint1_linear_1120_574" x1="576.065" y1="161.124" x2="521.638" y2="106.614" gradientUnits="userSpaceOnUse">
<stop stop-color="#54D8FD"/>
<stop offset="1" stop-color="#0080EC"/>
</linearGradient>
<clipPath id="clip0_1120_574">
<rect width="528" height="597" fill="white" transform="translate(673 287)"/>
</clipPath>
<clipPath id="clip1_1120_574">
<rect width="759" height="329" fill="white" transform="matrix(-1 0 0 1 766 555)"/>
</clipPath>
<clipPath id="clip2_1120_574">
<rect width="306" height="158" fill="white" transform="translate(367 349)"/>
</clipPath>
</defs>
</svg>
